<svg width="24" height="24" viewBox="0 0 24 24" fill="none" xmlns="http://www.w3.org/2000/svg">
<path fill-rule="evenodd" clip-rule="evenodd" d="M18.1446 4.00516C17.0707 2.93122 15.3294 2.93122 14.2555 4.00516L5.23989 13.0208C3.48254 14.7781 3.48254 17.6274 5.23989 19.3847C6.99725 21.1421 9.8465 21.1421 11.6039 19.3847L20.6195 10.3691C20.9124 10.0762 21.3872 10.0762 21.6801 10.3691C21.973 10.662 21.973 11.1369 21.6801 11.4298L12.6645 20.4454C10.3214 22.7885 6.52238 22.7885 4.17923 20.4454C1.83609 18.1023 1.83609 14.3033 4.17923 11.9601L13.1948 2.9445C14.8546 1.28478 17.5455 1.28477 19.2053 2.9445C20.865 4.60423 20.865 7.29518 19.2053 8.95491L10.5432 17.617C9.56688 18.5933 7.98397 18.5933 7.00766 17.617C6.03135 16.6407 6.03135 15.0577 7.00766 14.0814L14.6091 6.48004C14.902 6.18714 15.3768 6.18714 15.6697 6.48004C15.9626 6.77293 15.9626 7.2478 15.6697 7.5407L8.06832 15.1421C7.6778 15.5326 7.6778 16.1658 8.06832 16.5563C8.45885 16.9468 9.09201 16.9468 9.48253 16.5563L18.1446 7.89425C19.2185 6.82031 19.2185 5.07911 18.1446 4.00516Z" fill="#14273B"/>
</svg>
