<svg width="24" height="24" viewBox="0 0 24 24" fill="none" xmlns="http://www.w3.org/2000/svg">
<path fill-rule="evenodd" clip-rule="evenodd" d="M8.76008 1.25H15.2243C16.0371 1.24999 16.6927 1.24999 17.2237 1.29336C17.7703 1.33803 18.2504 1.43239 18.6947 1.65873C19.4003 2.01825 19.9739 2.59193 20.3335 3.29754C20.5598 3.74175 20.6542 4.2219 20.6988 4.76853C20.7422 5.29944 20.7422 5.95505 20.7422 6.76788V12.5C20.7422 12.9142 20.4064 13.25 19.9922 13.25C19.578 13.25 19.2422 12.9142 19.2422 12.5V6.8C19.2422 5.94755 19.2416 5.35331 19.2038 4.89068C19.1667 4.4368 19.0976 4.17604 18.997 3.97852C18.7812 3.55516 18.437 3.21095 18.0137 2.99524C17.8161 2.8946 17.5554 2.82547 17.1015 2.78838C16.6389 2.75058 16.0446 2.75 15.1922 2.75H8.79219C7.93973 2.75 7.3455 2.75058 6.88287 2.78838C6.42899 2.82547 6.16823 2.8946 5.97071 2.99524C5.54734 3.21095 5.20314 3.55516 4.98742 3.97852C4.88678 4.17604 4.81765 4.4368 4.78057 4.89068C4.74277 5.35331 4.74219 5.94755 4.74219 6.8V17.2C4.74219 18.0525 4.74277 18.6467 4.78057 19.1093C4.81765 19.5632 4.88678 19.824 4.98742 20.0215C5.20314 20.4448 5.54734 20.789 5.97071 21.0048C6.16823 21.1054 6.42899 21.1745 6.88287 21.2116C7.3455 21.2494 7.93973 21.25 8.79219 21.25H11.9922C12.4064 21.25 12.7422 21.5858 12.7422 22C12.7422 22.4142 12.4064 22.75 11.9922 22.75H8.76006C7.94723 22.75 7.29163 22.75 6.76072 22.7066C6.21408 22.662 5.73394 22.5676 5.28972 22.3413C4.58412 21.9817 4.01044 21.4081 3.65091 20.7025C3.42457 20.2582 3.33021 19.7781 3.28555 19.2315C3.24217 18.7006 3.24218 18.0449 3.24219 17.2321V6.7679C3.24218 5.95506 3.24217 5.29944 3.28555 4.76853C3.33021 4.2219 3.42457 3.74175 3.65091 3.29754C4.01044 2.59193 4.58412 2.01825 5.28972 1.65873C5.73394 1.43239 6.21408 1.33803 6.76072 1.29336C7.29163 1.24999 7.94724 1.24999 8.76008 1.25ZM7.24219 7C7.24219 6.58579 7.57797 6.25 7.99219 6.25H15.9922C16.4064 6.25 16.7422 6.58579 16.7422 7C16.7422 7.41421 16.4064 7.75 15.9922 7.75H7.99219C7.57797 7.75 7.24219 7.41421 7.24219 7ZM7.24219 11C7.24219 10.5858 7.57797 10.25 7.99219 10.25H13.9922C14.4064 10.25 14.7422 10.5858 14.7422 11C14.7422 11.4142 14.4064 11.75 13.9922 11.75H7.99219C7.57797 11.75 7.24219 11.4142 7.24219 11ZM7.24219 15C7.24219 14.5858 7.57797 14.25 7.99219 14.25H9.99219C10.4064 14.25 10.7422 14.5858 10.7422 15C10.7422 15.4142 10.4064 15.75 9.99219 15.75H7.99219C7.57797 15.75 7.24219 15.4142 7.24219 15ZM21.5225 15.9697C21.8154 16.2626 21.8154 16.7374 21.5225 17.0303L17.0225 21.5303C16.7296 21.8232 16.2548 21.8232 15.9619 21.5303L13.9619 19.5303C13.669 19.2374 13.669 18.7626 13.9619 18.4697C14.2548 18.1768 14.7296 18.1768 15.0225 18.4697L16.4922 19.9393L20.4619 15.9697C20.7548 15.6768 21.2296 15.6768 21.5225 15.9697Z" fill="white"/>
</svg>
