<svg width="24" height="24" viewBox="0 0 24 24" fill="none" xmlns="http://www.w3.org/2000/svg">
<path fill-rule="evenodd" clip-rule="evenodd" d="M3.6665 4.49984C3.6665 4.0396 4.0396 3.6665 4.49984 3.6665H10.3332C10.7934 3.6665 11.1665 4.0396 11.1665 4.49984V10.3332C11.1665 10.7934 10.7934 11.1665 10.3332 11.1665H4.49984C4.0396 11.1665 3.6665 10.7934 3.6665 10.3332V4.49984ZM5.33317 5.33317V9.49984H9.49984V5.33317H5.33317Z" fill="white"/>
<path fill-rule="evenodd" clip-rule="evenodd" d="M12.8335 4.49984C12.8335 4.0396 13.2066 3.6665 13.6668 3.6665H19.5002C19.9604 3.6665 20.3335 4.0396 20.3335 4.49984V10.3332C20.3335 10.7934 19.9604 11.1665 19.5002 11.1665H13.6668C13.2066 11.1665 12.8335 10.7934 12.8335 10.3332V4.49984ZM14.5002 5.33317V9.49984H18.6668V5.33317H14.5002Z" fill="white"/>
<path fill-rule="evenodd" clip-rule="evenodd" d="M12.8335 13.6668C12.8335 13.2066 13.2066 12.8335 13.6668 12.8335H19.5002C19.9604 12.8335 20.3335 13.2066 20.3335 13.6668V19.5002C20.3335 19.9604 19.9604 20.3335 19.5002 20.3335H13.6668C13.2066 20.3335 12.8335 19.9604 12.8335 19.5002V13.6668ZM14.5002 14.5002V18.6668H18.6668V14.5002H14.5002Z" fill="white"/>
<path fill-rule="evenodd" clip-rule="evenodd" d="M3.6665 13.6668C3.6665 13.2066 4.0396 12.8335 4.49984 12.8335H10.3332C10.7934 12.8335 11.1665 13.2066 11.1665 13.6668V19.5002C11.1665 19.9604 10.7934 20.3335 10.3332 20.3335H4.49984C4.0396 20.3335 3.6665 19.9604 3.6665 19.5002V13.6668ZM5.33317 14.5002V18.6668H9.49984V14.5002H5.33317Z" fill="white"/>
</svg>
