<?xml version="1.0" encoding="utf-8"?><svg xmlns="http://www.w3.org/2000/svg" xmlns:xlink="http://www.w3.org/1999/xlink"><symbol fill="none" viewBox="0 0 32 32" id="award" xmlns="http://www.w3.org/2000/svg"><path fill-rule="evenodd" clip-rule="evenodd" d="M16.001 3.667a8.333 8.333 0 1 0 0 16.666 8.333 8.333 0 0 0 0-16.666Zm6.447 16.409A10.314 10.314 0 0 0 26.335 12c0-5.707-4.627-10.334-10.334-10.334S5.668 6.293 5.668 12c0 3.269 1.518 6.183 3.887 8.077L8.343 29.2a1 1 0 0 0 1.506.99l6.118-3.671.034-.02.035.02 6.117 3.67a1 1 0 0 0 1.506-.988l-1.21-9.126Zm-1.86 1.186a10.29 10.29 0 0 1-4.587 1.071c-1.647 0-3.204-.385-4.586-1.07l-.816 6.145 4.339-2.603.042-.026c.146-.089.388-.236.664-.296.235-.052.48-.052.715 0 .276.06.517.207.664.296l.042.026 4.339 2.604-.816-6.147Z" fill="currentColor"/></symbol><symbol fill="none" viewBox="0 0 32 32" id="beaker" xmlns="http://www.w3.org/2000/svg"><path d="M13.333 2.667V8.88c0 .29 0 .434-.044.55a.625.625 0 0 1-.184.263c-.093.081-.244.136-.545.247A10.004 10.004 0 0 0 6 19.333c0 5.523 4.477 10 10 10s10-4.477 10-10c0-4.314-2.732-7.99-6.56-9.392-.301-.11-.452-.166-.545-.247a.625.625 0 0 1-.184-.264c-.044-.115-.044-.26-.044-.55V2.668m-7.334 0h9.334" stroke="currentColor" stroke-width="1.5" stroke-linecap="round" stroke-linejoin="round"/></symbol><symbol fill="none" viewBox="0 0 32 32" id="branch" xmlns="http://www.w3.org/2000/svg"><path d="M4 4v13.6c0 2.24 0 3.36.436 4.216a4 4 0 0 0 1.748 1.748C7.04 24 8.16 24 10.4 24H20m0 0a4 4 0 1 0 8 0 4 4 0 0 0-8 0ZM4 10.667h16m0 0a4 4 0 1 0 8 0 4 4 0 0 0-8 0Z" stroke="currentColor" stroke-width="1.5" stroke-linecap="round" stroke-linejoin="round"/></symbol><symbol fill="none" viewBox="0 0 32 32" id="briefcase" xmlns="http://www.w3.org/2000/svg"><path fill-rule="evenodd" clip-rule="evenodd" d="M15.845 3a389.232 389.232 0 0 0 .309 0c1.09 0 1.835 0 2.473.17a5 5 0 0 1 3.535 3.536c.123.458.158.971.167 1.627h2.778c.712 0 1.306 0 1.792.04.506.041.982.13 1.432.36.69.352 1.25.913 1.602 1.602.23.45.319.926.36 1.432.04.486.04 1.08.04 1.793v10.214c0 .712 0 1.307-.04 1.792-.041.507-.13.982-.36 1.432a3.666 3.666 0 0 1-1.602 1.602c-.45.23-.926.319-1.432.36-.486.04-1.08.04-1.792.04H6.892c-.712 0-1.307 0-1.792-.04-.507-.041-.982-.13-1.432-.36a3.666 3.666 0 0 1-1.602-1.602c-.23-.45-.319-.925-.36-1.432-.04-.485-.04-1.08-.04-1.792V13.559c0-.712 0-1.306.04-1.792.041-.506.13-.982.36-1.432.351-.69.912-1.25 1.602-1.602.45-.23.925-.319 1.432-.36.485-.04 1.08-.04 1.792-.04H9.67c.01-.656.044-1.169.166-1.627a5 5 0 0 1 3.536-3.536C14.01 3 14.754 3 15.845 3Zm-8.912 7.333c-.764 0-1.276.001-1.67.033-.383.032-.566.088-.687.15-.314.159-.569.414-.728.727-.062.121-.118.304-.149.687-.032.395-.033.907-.033 1.67v10.133c0 .764 0 1.276.033 1.67.031.383.087.566.149.687.16.314.414.569.728.728.12.062.304.118.687.15.394.031.906.032 1.67.032h18.133c.763 0 1.276 0 1.67-.033.383-.031.566-.087.687-.149.313-.16.568-.414.728-.728.062-.12.117-.304.149-.687.032-.394.033-.906.033-1.67V13.6c0-.763-.001-1.275-.033-1.67-.032-.383-.087-.566-.149-.687a1.666 1.666 0 0 0-.728-.728c-.121-.062-.304-.117-.687-.149-.395-.032-.907-.033-1.67-.033H6.933Zm13.395-2H11.67c.009-.58.033-.87.097-1.11a3 3 0 0 1 2.122-2.12C14.239 5.008 14.695 5 16 5c1.304 0 1.76.009 2.11.102a3 3 0 0 1 2.12 2.122c.065.24.089.53.098 1.11Z" fill="currentColor"/></symbol><symbol fill="none" viewBox="0 0 32 32" id="chart-up" xmlns="http://www.w3.org/2000/svg"><path fill-rule="evenodd" clip-rule="evenodd" d="M4 3a1 1 0 0 1 1 1v21.867c0 .39 0 .622.015.794a.84.84 0 0 0 .023.161c.032.06.08.108.14.14a.844.844 0 0 0 .161.023c.172.014.404.015.794.015H28a1 1 0 1 1 0 2H6.098c-.343 0-.658 0-.922-.021a2.366 2.366 0 0 1-.902-.233 2.334 2.334 0 0 1-1.02-1.02 2.366 2.366 0 0 1-.233-.902C3 26.56 3 26.244 3 25.902V4a1 1 0 0 1 1-1Zm1.175 23.96.001.001h-.002Zm-.135-.134-.001-.003v.003Zm17.627-16.493a1 1 0 1 1 0-2H28a1 1 0 0 1 1 1v5.334a1 1 0 1 1-2 0v-2.92l-5.558 5.558c-.115.116-.24.24-.357.34-.132.112-.318.249-.57.33a1.666 1.666 0 0 1-1.03 0 1.679 1.679 0 0 1-.57-.33 6.298 6.298 0 0 1-.357-.34l-2.51-2.51-.048-.047-.047.047-5.913 5.912a1 1 0 0 1-1.414-1.414l5.913-5.912.019-.02c.115-.115.24-.24.357-.339a1.68 1.68 0 0 1 .57-.331 1.667 1.667 0 0 1 1.03 0c.252.082.438.219.57.331.117.1.242.224.357.34l2.51 2.51.048.047.047-.047 5.539-5.539h-2.92Z" fill="currentColor"/></symbol><symbol fill="none" viewBox="0 0 32 32" id="code" xmlns="http://www.w3.org/2000/svg"><path fill-rule="evenodd" clip-rule="evenodd" d="M18.883 3.024a1 1 0 0 1 .76 1.193l-5.334 24a1 1 0 1 1-1.952-.434l5.333-24a1 1 0 0 1 1.193-.759ZM10.04 8.626a1 1 0 0 1 0 1.415L4.08 16l5.96 5.959a1 1 0 0 1-1.414 1.414l-6.667-6.667a1 1 0 0 1 0-1.414l6.667-6.667a1 1 0 0 1 1.414 0Zm11.919 0a1 1 0 0 1 1.414 0l6.667 6.667a1 1 0 0 1 0 1.414l-6.667 6.667a1 1 0 0 1-1.414-1.414l5.96-5.96-5.96-5.96a1 1 0 0 1 0-1.414Z" fill="currentColor"/></symbol><symbol fill="none" viewBox="0 0 32 32" id="hammer" xmlns="http://www.w3.org/2000/svg"><path fill-rule="evenodd" clip-rule="evenodd" d="M28.098 10.807a.995.995 0 0 1-.704.291H19.86v18.907a.995.995 0 0 1-.995.995h-5.686a.995.995 0 0 1-.995-.995V11.098H3.938a.995.995 0 0 1-.995-.995V6.717a.995.995 0 0 1 .55-.89L11.148 2h16.247a.995.995 0 0 1 .995.995v7.108a.995.995 0 0 1-.291.704Zm-7.385-1.699V3.99h-9.096L4.934 7.332v1.776h9.24V29.01h3.696V9.108h2.843Zm5.686-5.118v5.118h-3.696V3.99H26.4Z" fill="currentColor"/></symbol><symbol fill="none" viewBox="0 0 32 32" id="heart" xmlns="http://www.w3.org/2000/svg"><path fill-rule="evenodd" clip-rule="evenodd" d="M15.992 5.405c-3.014-2.806-7.58-3.427-11.1-.419C1.15 8.183.61 13.56 3.563 17.361c1.145 1.473 3.397 3.705 5.582 5.768a246.392 246.392 0 0 0 5.489 5.007l.018.017c.105.092.222.197.333.28.129.097.302.209.53.276.31.093.643.093.953 0 .227-.067.4-.179.53-.276.11-.084.228-.188.333-.28l.018-.017c1.085-.96 3.285-2.927 5.489-5.007 2.185-2.063 4.436-4.295 5.582-5.768 2.945-3.79 2.485-9.206-1.338-12.383-3.565-2.963-8.08-2.38-11.091.427Zm-.76 2.093c-2.371-2.773-6.193-3.425-9.041-.991-2.939 2.51-3.34 6.678-1.048 9.627 1.036 1.332 3.175 3.463 5.376 5.54a244.7 244.7 0 0 0 5.473 4.993l.032-.028c1.078-.955 3.26-2.905 5.442-4.965 2.201-2.077 4.34-4.208 5.375-5.54 2.3-2.96 1.935-7.148-1.037-9.618-2.916-2.424-6.688-1.782-9.052.982a1 1 0 0 1-1.52 0Z" fill="currentColor"/></symbol><symbol fill="none" viewBox="0 0 32 32" id="home" xmlns="http://www.w3.org/2000/svg"><path fill-rule="evenodd" clip-rule="evenodd" d="M15.915 4.034a.73.73 0 0 0-.11.064 9.92 9.92 0 0 0-.5.377L6.26 11.508c-.649.505-.817.647-.934.805-.12.163-.21.347-.265.542-.053.19-.062.41-.062 1.232v9.646c0 .764 0 1.276.033 1.67.031.383.087.566.149.687.16.314.415.569.728.728.12.062.304.118.687.149.394.032.907.033 1.67.033H11v-8.902c0-.343 0-.658.022-.922.023-.284.076-.595.232-.902.224-.439.581-.796 1.02-1.02.307-.156.618-.21.902-.232.264-.022.58-.022.922-.022h3.804c.343 0 .658 0 .922.021.284.024.595.077.902.233.44.224.796.581 1.02 1.02.156.307.21.618.233.902.021.264.021.579.021.922V27h2.733c.764 0 1.276 0 1.67-.033.383-.031.566-.087.687-.149.314-.16.569-.414.728-.728.062-.12.118-.304.15-.687.031-.394.032-.906.032-1.67v-9.646c0-.823-.009-1.043-.062-1.232a1.664 1.664 0 0 0-.265-.542c-.116-.158-.285-.3-.934-.805l-9.043-7.033a9.92 9.92 0 0 0-.501-.377.73.73 0 0 0-.11-.064.333.333 0 0 0-.17 0Zm.168-.001h.002ZM23.774 29c.712 0 1.307 0 1.792-.04.507-.041.982-.13 1.432-.36a3.667 3.667 0 0 0 1.602-1.602c.23-.45.32-.925.36-1.432.04-.485.04-1.08.04-1.792v-9.801c0-.655 0-1.17-.136-1.657a3.667 3.667 0 0 0-.583-1.192c-.3-.408-.707-.723-1.224-1.124l-.09-.07-9.043-7.034a36.65 36.65 0 0 1-.095-.074c-.367-.288-.759-.594-1.22-.718-.398-.109-.82-.109-1.219 0-.46.124-.851.43-1.22.718-.03.025-.062.05-.094.074L5.033 9.929l-.09.07c-.516.402-.923.717-1.224 1.125a3.667 3.667 0 0 0-.583 1.192C2.999 12.804 3 13.318 3 13.972v9.802c0 .712 0 1.307.04 1.792.041.507.13.982.36 1.432.351.69.912 1.25 1.602 1.602.45.23.925.319 1.432.36.486.04 1.08.04 1.792.04h15.548ZM19 27v-8.867c0-.39 0-.622-.015-.794a.845.845 0 0 0-.023-.161.334.334 0 0 0-.14-.14.838.838 0 0 0-.16-.023 11.168 11.168 0 0 0-.795-.015h-3.734c-.39 0-.622 0-.794.015a.834.834 0 0 0-.16.023.334.334 0 0 0-.14.14.845.845 0 0 0-.024.161c-.014.172-.015.404-.015.794V27h6Zm-5.96-9.826-.001.003Zm.135-.134.002-.001Zm5.65 0-.001-.001Zm.136.134v.003Zm-3.046-13.14a.047.047 0 0 1 .003-.001Z" fill="currentColor"/></symbol><symbol fill="none" viewBox="0 0 80 80" id="icon-1" xmlns="http://www.w3.org/2000/svg"><g clip-path="url(#ja)" stroke="#00A8F2" stroke-width="2"><circle cx="40.001" cy="39.999" r="38.344"/><path opacity=".2" d="M58.672 40c0 10.743-2.179 20.42-5.656 27.373C49.51 74.386 44.85 78.343 40 78.343s-9.509-3.957-13.016-10.97c-3.477-6.954-5.656-16.63-5.656-27.374 0-10.743 2.18-20.42 5.656-27.373C30.491 5.613 35.151 1.656 40 1.656c4.85 0 9.51 3.957 13.016 10.97 3.477 6.954 5.656 16.63 5.656 27.373ZM41 .655v78.689"/></g><defs><clipPath id="ja"><path fill="#fff" d="M0 0h80v80H0z"/></clipPath></defs></symbol><symbol fill="none" viewBox="0 0 80 80" id="icon-2" xmlns="http://www.w3.org/2000/svg"><g clip-path="url(#ka)" stroke="#00A8F2" stroke-width="2"><circle cx="40.001" cy="40" r="38.344"/><circle opacity=".2" cx="39.999" cy="40" r="25.23"/><circle cx="39.998" cy="40" r="12.115"/></g><defs><clipPath id="ka"><path fill="#fff" d="M0 0h80v80H0z"/></clipPath></defs></symbol><symbol fill="none" viewBox="0 0 80 80" id="icon-3" xmlns="http://www.w3.org/2000/svg"><g clip-path="url(#la)" stroke="#00A8F2" stroke-width="2"><circle cx="40.001" cy="39.999" r="38.344"/><path opacity=".2" d="M79.344 40.999H.655M41 .655v78.689"/></g><defs><clipPath id="la"><path fill="#fff" d="M0 0h80v80H0z"/></clipPath></defs></symbol><symbol fill="none" viewBox="0 0 80 80" id="icon-4" xmlns="http://www.w3.org/2000/svg"><g clip-path="url(#ma)" stroke="#00A8F2" stroke-width="2"><circle cx="40.001" cy="40" r="38.344"/><circle opacity=".2" cx="39.999" cy="53.115" r="25.23"/><circle cx="39.998" cy="66.23" r="12.115"/></g><defs><clipPath id="ma"><path fill="#fff" d="M0 0h80v80H0z"/></clipPath></defs></symbol><symbol fill="none" viewBox="0 0 144 36" id="logo" xmlns="http://www.w3.org/2000/svg"><g clip-path="url(#na)" fill="currentColor"><path d="M0 35.64 15.108.9h5.83l15.108 34.74h-7.912l-2.794-6.452H10.703l-2.794 6.451H0Zm18.026-23.352L13.52 22.687h9.008l-4.503-10.399ZM65.06.9 49.528 35.64h-5.36L27.84.9h8.486l10.567 22.949 9.88-22.95h8.288ZM56.676 35.64 71.784.9h5.83L92.72 35.64H84.81l-2.794-6.452H67.38l-2.792 6.451h-7.912Zm18.027-23.352-4.507 10.399h9.007l-4.5-10.399ZM98.674 2.932l-.312 1.478-.194.037a7.873 7.873 0 0 0-1.719-.833 5.444 5.444 0 0 0-1.666-.25c-2.81 0-4.215 1.736-4.215 5.207 0 1.67.327 2.898.98 3.682.655.784 1.669 1.176 3.042 1.176.368 0 .736-.033 1.098-.097.483-.094.96-.218 1.427-.37l.04-1.457-.02-1.864 1.458-.118-.04 1.768.078 2.721c-.733.232-1.48.42-2.234.563-.622.114-1.253.173-1.885.175-1.852 0-3.24-.524-4.164-1.573-.924-1.049-1.387-2.564-1.389-4.547 0-2.138.525-3.767 1.573-4.887 1.048-1.12 2.544-1.68 4.489-1.68a7.836 7.836 0 0 1 3.653.87ZM109.884 14.24l-.019.194c-.462.18-.945.297-1.438.35l-.213-.137a67.253 67.253 0 0 1-2.856-4.663h-2.274v.738l.078 3.886h-1.575l.099-3.748-.099-8.703 3.81-.02c1.216 0 2.159.308 2.827.923.667.615 1.001 1.493.999 2.632a4.107 4.107 0 0 1-.666 2.303c-.445.68-1.076 1.207-1.894 1.582a53.108 53.108 0 0 0 3.221 4.662Zm-6.78-5.576 2.332.058c1.45-.415 2.175-1.38 2.176-2.894 0-.79-.214-1.384-.641-1.78-.428-.395-1.069-.605-1.924-.63l-1.885.058-.058 5.188ZM120.52 3.612c.911 1.05 1.367 2.56 1.367 4.527 0 2.124-.486 3.76-1.456 4.906-.971 1.147-2.357 1.72-4.159 1.72-1.684 0-2.983-.544-3.896-1.633-.912-1.088-1.369-2.636-1.369-4.643 0-2.072.483-3.666 1.448-4.78.965-1.114 2.341-1.671 4.128-1.67 1.712 0 3.024.524 3.937 1.573Zm-7.917 4.702c0 1.776.314 3.091.942 3.944.628.853 1.576 1.28 2.845 1.282 2.591 0 3.886-1.703 3.886-5.11 0-1.735-.314-3.024-.943-3.867-.628-.842-1.577-1.263-2.847-1.262-2.589 0-3.883 1.67-3.883 5.013ZM133.217 8.489l-.02 1.399c.026 1.528-.376 2.72-1.205 3.575-.83.856-2.009 1.283-3.537 1.282-1.463 0-2.587-.408-3.37-1.224-.784-.816-1.162-1.969-1.137-3.458l.02-1.69-.02-6.218h1.535l-.058 7.713c-.014 1.166.245 2.043.777 2.633.531.589 1.321.884 2.37.884 1.049 0 1.846-.277 2.39-.833.544-.555.81-1.384.797-2.487l-.078-7.912h1.554l-.018 6.336ZM143.008 3.078c.661.628.992 1.531.991 2.71 0 1.389-.411 2.477-1.233 3.264-.823.788-1.959 1.183-3.41 1.185h-1.479v.486l.077 3.886h-1.574l.098-3.748-.098-8.704 3.809-.019c1.219-.001 2.159.312 2.819.94Zm-1.233 4.926c.42-.52.631-1.213.632-2.082 0-1.606-.855-2.441-2.565-2.506l-1.885.057-.058 5.46 2.04.039c.803-.127 1.415-.45 1.836-.968Z"/></g><defs><clipPath id="na"><path fill="#fff" d="M0 0h144v36H0z"/></clipPath></defs></symbol><symbol fill="none" viewBox="0 0 24 24" id="ok" xmlns="http://www.w3.org/2000/svg"><path d="M11.451 3.63a2.567 2.567 0 0 1 2.565 2.565 2.567 2.567 0 0 1-2.565 2.563 2.568 2.568 0 0 1-2.564-2.563A2.568 2.568 0 0 1 11.45 3.63Zm0 8.757a6.199 6.199 0 0 0 6.194-6.192A6.2 6.2 0 0 0 11.451 0a6.2 6.2 0 0 0-6.194 6.195 6.2 6.2 0 0 0 6.194 6.192Zm2.506 5.053a11.598 11.598 0 0 0 3.597-1.49 1.815 1.815 0 0 0-1.933-3.073 7.863 7.863 0 0 1-8.34 0 1.813 1.813 0 0 0-2.502.57 1.814 1.814 0 0 0 .569 2.503 11.615 11.615 0 0 0 3.596 1.49l-3.462 3.462a1.815 1.815 0 0 0 2.567 2.566l3.401-3.402 3.405 3.402a1.813 1.813 0 1 0 2.565-2.566l-3.463-3.462Z" fill="currentColor"/></symbol><symbol fill="none" viewBox="0 0 32 32" id="play" xmlns="http://www.w3.org/2000/svg"><path fill-rule="evenodd" clip-rule="evenodd" d="M21.3333 16.0001L13.3333 11.3813L13.3333 20.619L21.3333 16.0001ZM19.9999 16.0001L13.9999 12.536L13.9999 19.4643L19.9999 16.0001Z" fill="currentColor"/></symbol><symbol fill="none" viewBox="0 0 32 32" id="roller-brush" xmlns="http://www.w3.org/2000/svg"><path fill-rule="evenodd" clip-rule="evenodd" d="M7.236 1.667h14.862c.523 0 .927 0 1.284.07a3.667 3.667 0 0 1 2.88 2.88c.025.124.041.252.052.389.198.003.38.01.546.022.423.028.823.09 1.21.251a3.667 3.667 0 0 1 1.984 1.984c.16.388.223.787.252 1.21.027.406.027.9.027 1.493v.475c0 .712 0 1.306-.04 1.792-.04.506-.13.982-.36 1.431a3.667 3.667 0 0 1-1.602 1.603c-.45.229-.925.319-1.431.36-.486.04-1.08.04-1.793.04h-4.84c-.764 0-1.276 0-1.67.033-.383.03-.566.087-.687.148-.314.16-.569.415-.728.729-.062.12-.118.303-.149.686-.032.395-.033.907-.033 1.67v.069c.177.002.342.007.49.02.285.023.596.076.903.232.439.224.796.58 1.02 1.02.156.307.209.618.232.902.022.264.022.579.022.922v5.137c0 .343 0 .659-.022.922a2.365 2.365 0 0 1-.233.902c-.223.44-.58.796-1.02 1.02-.306.156-.617.21-.901.233a12 12 0 0 1-.923.021h-1.136c-.344 0-.659 0-.922-.021a2.365 2.365 0 0 1-.903-.233 2.333 2.333 0 0 1-1.02-1.02 2.366 2.366 0 0 1-.232-.902c-.022-.264-.022-.579-.022-.922v-5.137c0-.343 0-.658.022-.922.023-.284.076-.595.233-.902.223-.44.58-.796 1.02-1.02.306-.156.617-.21.902-.233.148-.012.313-.017.49-.02v-.108c0-.713 0-1.307.04-1.793.041-.506.13-.982.36-1.431.351-.69.912-1.251 1.602-1.603.45-.229.925-.318 1.432-.36.485-.04 1.08-.04 1.792-.04h4.84c.764 0 1.276 0 1.67-.032.384-.032.567-.088.687-.15.314-.159.569-.414.729-.727.061-.121.117-.304.148-.687.033-.395.033-.907.033-1.67V10c0-.635 0-1.061-.023-1.391-.022-.321-.06-.477-.104-.58a1.666 1.666 0 0 0-.901-.902c-.103-.043-.26-.082-.58-.104a9.017 9.017 0 0 0-.412-.017c-.01.132-.026.257-.05.376a3.667 3.667 0 0 1-2.88 2.88c-.358.072-.762.072-1.285.071H7.236c-.524 0-.928 0-1.285-.07a3.667 3.667 0 0 1-2.88-2.881C3 7.025 3 6.622 3 6.098a156.865 156.865 0 0 0 0-.196c0-.523 0-.927.07-1.284a3.667 3.667 0 0 1 2.881-2.881c.357-.07.761-.07 1.285-.07ZM15.466 21c-.39 0-.621 0-.794.015a.845.845 0 0 0-.16.023.334.334 0 0 0-.14.14.843.843 0 0 0-.024.16c-.014.173-.015.405-.015.795V27.2c0 .39.001.622.015.794.009.105.02.15.024.161.031.06.08.108.14.14a.836.836 0 0 0 .16.023c.173.014.405.015.795.015h1.066c.39 0 .622 0 .795-.015a.836.836 0 0 0 .16-.023.334.334 0 0 0 .14-.14.836.836 0 0 0 .024-.16c.014-.173.015-.405.015-.795v-5.067c0-.39-.001-.622-.015-.794a.834.834 0 0 0-.024-.161.334.334 0 0 0-.14-.14.843.843 0 0 0-.16-.023 11.166 11.166 0 0 0-.795-.015h-1.066Zm2.026.04-.002-.001h.002Zm.135.134v.002-.002Zm-.135 7.12h-.002.002Zm-2.984 0h.002-.002Zm-.135-7.12v.002-.002Zm.135-.134.002-.001h-.002ZM7.333 3.666c-.667 0-.855.004-.991.032a1.667 1.667 0 0 0-1.31 1.31c-.027.136-.032.323-.032.99 0 .668.005.856.032.993a1.667 1.667 0 0 0 1.31 1.31c.136.026.324.031.991.031H22c.668 0 .855-.005.992-.032a1.667 1.667 0 0 0 1.31-1.31c.027-.136.031-.324.031-.991 0-.668-.004-.855-.032-.992a1.667 1.667 0 0 0-1.31-1.31c-.136-.027-.323-.031-.99-.031H7.332Z" fill="currentColor"/></symbol><symbol fill="none" viewBox="0 0 32 32" id="sprout" xmlns="http://www.w3.org/2000/svg"><g clip-path="url(#qa)"><mask id="qb" style="mask-type:luminance" maskUnits="userSpaceOnUse" x="0" y="0" width="32" height="32"><path d="M0 0h32v32H0V0Z" fill="#fff"/></mask><g mask="url(#qb)" fill-rule="evenodd" clip-rule="evenodd" fill="currentColor"><path d="M15.066 23.002a1 1 0 0 0 1.034.89c3.193-.127 5.507-.766 7.25-1.777 1.755-1.018 2.85-2.365 3.675-3.76.407-.69.751-1.397 1.07-2.072l.165-.348c.263-.556.511-1.084.784-1.597.65-1.222 1.381-2.248 2.513-3.007a1 1 0 0 0-.288-1.794c-9.313-2.599-17.125 5.02-16.203 13.465Zm1.928-1.166c-.115-6.145 5.174-11.48 11.833-10.744-.637.723-1.127 1.514-1.549 2.307-.297.56-.57 1.14-.833 1.696l-.157.332a23.606 23.606 0 0 1-.986 1.91c-.706 1.198-1.581 2.251-2.954 3.047-1.228.712-2.917 1.255-5.354 1.452Z"/><path d="M15.786 21.567a1 1 0 0 0 1.137-.755C19.119 11.59 11.502 2.203.853 3.782a1 1 0 0 0-.51 1.743c1.18 1.026 1.863 2.29 2.422 3.743.233.606.438 1.225.652 1.874l.139.417c.263.79.548 1.617.905 2.432.721 1.646 1.746 3.267 3.54 4.62 1.785 1.345 4.256 2.37 7.785 2.956ZM3.104 5.607c7.797-.04 13.148 6.8 12.056 13.812-2.778-.563-4.644-1.417-5.954-2.405-1.444-1.088-2.285-2.393-2.914-3.826-.317-.725-.578-1.477-.839-2.26l-.132-.399c-.215-.65-.437-1.324-.69-1.98-.384-1-.854-2.004-1.527-2.941Z"/><path d="M15.998 28.393a1 1 0 0 0 1-1v-5.351a1 1 0 1 0-2 0v5.351a1 1 0 0 0 1 1Z"/></g></g><defs><clipPath id="qa"><path fill="#fff" d="M0 0h32v32H0z"/></clipPath></defs></symbol><symbol fill="none" viewBox="0 0 32 32" id="star" xmlns="http://www.w3.org/2000/svg"><path fill-rule="evenodd" clip-rule="evenodd" d="M15.28 2.668c.454-.217.981-.217 1.435 0 .379.18.596.498.72.7.127.208.26.477.398.758l2.933 5.942.016.031.034.005 6.56.959c.31.045.607.088.844.145.23.056.6.165.888.47.346.364.509.865.443 1.364-.055.416-.29.72-.445.901-.158.185-.373.394-.597.612l-4.745 4.622-.025.025.005.034 1.12 6.529c.053.309.104.604.123.847.019.236.03.621-.17.99-.24.442-.667.752-1.161.844-.413.076-.776-.053-.995-.144-.225-.093-.49-.233-.768-.379L16.03 24.84a6.524 6.524 0 0 0-.032-.017c-.01.006-.02.01-.03.017L10.1 27.923c-.277.146-.542.286-.767.379-.22.09-.582.22-.995.144a1.667 1.667 0 0 1-1.16-.844c-.201-.369-.19-.754-.171-.99.019-.243.07-.538.123-.847l1.12-6.529.005-.034-.025-.025-4.745-4.622c-.225-.218-.44-.427-.597-.612-.155-.18-.39-.485-.445-.901-.066-.498.097-1 .442-1.365.29-.304.659-.413.89-.469a10.144 10.144 0 0 1 .88-.15l6.522-.954.035-.005.016-.031 2.933-5.942c.138-.28.27-.55.398-.757.124-.203.341-.52.72-.701Zm.717 2.257c-.018.038-.038.079-.06.121l-2.915 5.907-.019.039a2.202 2.202 0 0 1-.347.546 1.667 1.667 0 0 1-.519.377 2.209 2.209 0 0 1-.67.168l-6.52.953-.134.02.096.094 4.718 4.595.03.03c.11.105.29.279.414.5.105.188.172.396.198.61a2.204 2.204 0 0 1-.047.69l-1.114 6.49-.022.132.12-.062 5.83-3.066c.011-.007.024-.013.038-.02.134-.072.355-.19.603-.239.212-.041.43-.041.641 0 .248.049.47.167.603.238l.038.02 5.83 3.067.12.062-.023-.133-1.113-6.49a2.204 2.204 0 0 1-.047-.69c.026-.213.093-.42.198-.61.123-.22.304-.394.413-.5l.031-.03 4.718-4.594.096-.094-.133-.02-6.522-.953a2.209 2.209 0 0 1-.67-.168 1.665 1.665 0 0 1-.518-.377c-.171-.185-.28-.41-.347-.546a3.888 3.888 0 0 0-.02-.04l-2.915-5.906c-.02-.042-.04-.083-.06-.12Z" fill="currentColor"/></symbol><symbol fill="none" viewBox="0 0 32 32" id="star2" xmlns="http://www.w3.org/2000/svg"><path d="m16 2.667 2.682 6.975c.376.977.564 1.466.856 1.877.26.365.578.683.942.942.411.292.9.48 1.878.857L29.333 16l-6.975 2.683c-.978.376-1.467.564-1.878.856-.364.26-.683.578-.942.942-.292.411-.48.9-.856 1.878l-2.683 6.974-2.682-6.974c-.376-.978-.564-1.467-.857-1.878a4.002 4.002 0 0 0-.942-.942c-.41-.292-.9-.48-1.877-.856L2.666 16l6.975-2.682c.977-.377 1.466-.564 1.877-.857.365-.259.683-.577.942-.942.293-.411.48-.9.857-1.877l2.682-6.975Z" stroke="currentColor" stroke-width="2" stroke-linecap="round" stroke-linejoin="round"/></symbol><symbol fill="none" viewBox="0 0 24 24" id="tg" xmlns="http://www.w3.org/2000/svg"><path d="M22.454 3.388a.475.475 0 0 0-.326-.356 1.676 1.676 0 0 0-.886.064S1.529 10.18.402 10.964c-.241.17-.323.268-.364.383-.194.563.412.806.412.806l5.08 1.655c.087.015.175.01.258-.016 1.156-.73 11.63-7.343 12.234-7.565.095-.028.166 0 .14.07-.241.843-9.289 8.885-9.338 8.934a.194.194 0 0 0-.069.166l-.474 4.96s-.2 1.547 1.345 0a43.144 43.144 0 0 1 2.671-2.443c1.747 1.206 3.627 2.54 4.438 3.234a1.407 1.407 0 0 0 1.03.398 1.16 1.16 0 0 0 .984-.875s3.601-14.448 3.72-16.393c.012-.19.03-.305.03-.446.005-.149-.01-.298-.045-.444Z" fill="currentColor"/></symbol><symbol fill="none" viewBox="0 0 32 32" id="umbrella" xmlns="http://www.w3.org/2000/svg"><path fill-rule="evenodd" clip-rule="evenodd" d="M18.655 3.953c-4.491-.992-9.258.612-12.218 4.255a6.48 6.48 0 0 0-.388.501c-.048.076-.052.1-.053.11v.001s-.002.01-.001.032a.544.544 0 0 0 .042.19l.002.004a.784.784 0 0 0 .11.093c.131.094.318.203.65.395l4.228 2.44c1.777-2.883 3.83-5.258 5.802-6.81.607-.478 1.22-.888 1.826-1.211Zm4.505-.37C16.978.019 9.246 1.58 4.885 6.948l-.073.088c-.325.398-.688.84-.79 1.46a2.457 2.457 0 0 0 .287 1.556c.184.315.425.534.674.713.221.158.496.317.783.483l.034.02 5.08 2.932h.001l3.752 2.167-6.909 11.967H2.666a1 1 0 1 0 0 2h26.667a1 1 0 1 0 0-2h-19.3l6.332-10.967 8.867 5.12c.288.165.562.324.81.436.28.126.59.226.955.227a2.457 2.457 0 0 0 1.49-.53c.486-.397.688-.933.87-1.413l.04-.107c2.468-6.463-.048-13.942-6.231-17.512a.279.279 0 0 0-.006-.003Zm-.994 1.736c-.323-.186-.81-.254-1.536-.038-.729.217-1.602.697-2.564 1.454-1.74 1.369-3.632 3.534-5.306 6.24l7.479 4.318c1.506-2.803 2.435-5.524 2.75-7.715.175-1.212.154-2.208-.022-2.948-.175-.736-.478-1.124-.801-1.31Zm-.194 12.975c1.608-2.981 2.64-5.947 2.997-8.43.11-.765.16-1.5.136-2.188 3.104 3.395 4.098 8.324 2.424 12.71-.12.312-.182.472-.24.586-.042.08-.06.094-.069.1l-.001.002s-.008.006-.027.016a.56.56 0 0 1-.155.055c-.02.004-.031.004-.031.004H26.997l-.01-.003a.786.786 0 0 1-.12-.046 8.786 8.786 0 0 1-.668-.366l-4.227-2.44Z" fill="currentColor"/></symbol><symbol fill="none" viewBox="0 0 24 24" id="vk" xmlns="http://www.w3.org/2000/svg"><path fill-rule="evenodd" clip-rule="evenodd" d="M23.435 6.925c.178-.522 0-.901-.788-.901H20.03c-.66 0-.966.332-1.144.688 0 0-1.347 3.037-3.228 5.006-.61.57-.89.759-1.22.759-.178 0-.406-.19-.406-.712V6.902c0-.617-.204-.902-.763-.902H9.15c-.406 0-.66.285-.66.57 0 .593.94.735 1.042 2.396v3.606c0 .783-.153.925-.483.925-.89 0-3.05-3.06-4.347-6.548C4.448 6.261 4.194 6 3.533 6H.89C.127 6 0 6.332 0 6.688c0 .64.89 3.867 4.143 8.138 2.16 2.918 5.236 4.484 8.007 4.484 1.677 0 1.88-.356 1.88-.95v-2.206c0-.711.153-.83.687-.83.381 0 1.067.19 2.618 1.59 1.78 1.66 2.084 2.42 3.075 2.42h2.619c.762 0 1.118-.357.915-1.045-.23-.688-1.093-1.684-2.212-2.87-.61-.665-1.525-1.4-1.804-1.756-.382-.474-.28-.664 0-1.091-.026 0 3.177-4.223 3.507-5.647Z" fill="currentColor"/></symbol></svg>