<?xml version="1.0" encoding="utf-8"?><svg xmlns="http://www.w3.org/2000/svg" xmlns:xlink="http://www.w3.org/1999/xlink"><symbol fill="none" viewBox="0 0 32 32" id="apple" xmlns="http://www.w3.org/2000/svg"><path fill-rule="evenodd" clip-rule="evenodd" d="M17.258 8.364c.725-1.858 2.144-2.96 4.22-3.276L21.23 3.39h-.001l.248 1.698c-2.075.316-3.495 1.418-4.22 3.276a6.94 6.94 0 0 0-.284.914l-.01.076.01-.076a7.002 7.002 0 0 1 .285-.914Zm4.64-.485a7.6 7.6 0 0 1 1.726.255 6.794 6.794 0 0 1 3.2 1.896c.82.858 1.451 1.944 1.879 3.229.795 2.39.839 5.376.122 8.408-.878 3.715-2.654 6.55-5.002 7.982a6.806 6.806 0 0 1-3.579 1.018h.001c1.258 0 2.47-.342 3.579-1.018 2.348-1.433 4.124-4.267 5.002-7.982.716-3.032.673-6.018-.123-8.408-.427-1.285-1.06-2.371-1.878-3.23a6.794 6.794 0 0 0-3.2-1.895 7.6 7.6 0 0 0-1.728-.255Zm-5.975 21.417a7.823 7.823 0 0 0 0 0ZM10.13 1.334l.698.08c.149.016 3.665.443 5.296 2.956.3.462.512.957.657 1.457a5.396 5.396 0 0 0-.657-1.457c-1.63-2.513-5.147-2.94-5.295-2.957l-.699-.08ZM21.21 3.259c-2.071.315-3.453 1.23-4.372 2.295a5.49 5.49 0 0 0-.6-1.257c-.837-1.29-2.153-2.038-3.267-2.466a9.446 9.446 0 0 0-2.125-.55l-.81-.093-.232.797a9.94 9.94 0 0 0-.324 2.08c-.056 1.088.048 2.454.668 3.678a7.735 7.735 0 0 0-1.96.263c-2.469.662-4.227 2.442-5.085 5.127-.749 2.34-.757 5.314-.033 8.376.917 3.883 2.723 6.835 5.105 8.289 1.626.992 3.488 1.246 5.38.738a7.947 7.947 0 0 0 2.369-1.08 7.95 7.95 0 0 0 2.369 1.08c.656.176 1.31.264 1.953.264 1.283 0 2.52-.349 3.648-1.038 2.389-1.457 4.18-4.329 5.062-8.064.721-3.051.68-6.063-.125-8.481-.433-1.3-1.074-2.405-1.908-3.28a6.927 6.927 0 0 0-3.263-1.931 7.931 7.931 0 0 0-4.505.133 9.17 9.17 0 0 0-1.988.927c.059-.214.13-.433.216-.654.706-1.81 2.084-2.883 4.115-3.192l.131-.02-.286-1.962-.133.02Zm-6.053 5.828c-.944-.257-2.37-.818-3.107-1.952-.746-1.15-.692-2.715-.554-3.7.944.256 2.38.818 3.119 1.956.71 1.094.696 2.567.572 3.56l-.03.136Zm-3.219-1.88c-.777-1.197-.713-2.815-.571-3.806a8.485 8.485 0 0 1 .019-.132c-.154.973-.261 2.686.552 3.938.802 1.236 2.38 1.805 3.321 2.045a8.414 8.414 0 0 1-.129-.034c-.951-.258-2.425-.83-3.192-2.01Zm4.59 20.25-.604-.487-.604.487a6.112 6.112 0 0 1-2.261 1.162c-1.398.375-2.702.198-3.883-.522-.938-.573-1.783-1.473-2.51-2.683-.732-1.22-1.306-2.69-1.703-4.37-.644-2.723-.643-5.314-.01-7.296.66-2.06 1.915-3.337 3.73-3.825.673-.18 1.887-.227 3.15.06 1.263.285 2.553.897 3.396 2.013l.695.698.682-.684c1.933-1.936 4.323-2.687 6.558-2.087 2.276.611 3.334 2.463 3.823 3.93.685 2.057.715 4.678.077 7.38-.767 3.244-2.255 5.66-4.17 6.828-1.253.765-2.631.953-4.105.558a6.112 6.112 0 0 1-2.26-1.162Zm-.604-.316.52.42a6.245 6.245 0 0 1 0 0l-.52-.42Zm-4.61 1.79a4.86 4.86 0 0 1-2.207-.72c-.96-.586-1.82-1.504-2.555-2.728-.741-1.234-1.32-2.717-1.719-4.408-.647-2.74-.65-5.356-.006-7.368.67-2.095 1.956-3.412 3.822-3.913.399-.107.974-.167 1.634-.145-.66-.022-1.236.038-1.634.145-1.866.501-3.153 1.818-3.823 3.913-.643 2.012-.641 4.628.007 7.368.4 1.691.977 3.174 1.718 4.408.735 1.224 1.595 2.142 2.555 2.727a4.86 4.86 0 0 0 2.207.721Zm4.61-16.426.588-.589c1.575-1.578 3.458-2.387 5.326-2.325-1.868-.062-3.751.747-5.326 2.325l-.588.59Z" fill="currentColor"/></symbol><symbol fill="none" viewBox="0 0 32 32" id="atom-01" xmlns="http://www.w3.org/2000/svg"><path d="M16 16h.013m4.701 4.714c-6.248 6.249-13.424 9.203-16.028 6.6-2.603-2.604.352-9.78 6.6-16.028 6.248-6.248 13.424-9.203 16.028-6.6 2.603 2.604-.352 9.78-6.6 16.028Zm0-9.428c6.248 6.248 9.203 13.424 6.6 16.028-2.604 2.603-9.78-.352-16.028-6.6-6.248-6.248-9.203-13.424-6.6-16.028 2.604-2.603 9.78.352 16.028 6.6ZM16.667 16a.667.667 0 1 1-1.334 0 .667.667 0 0 1 1.334 0Z" stroke="currentColor" stroke-width="2" stroke-linecap="round" stroke-linejoin="round"/></symbol><symbol fill="none" viewBox="0 0 32 32" id="award" xmlns="http://www.w3.org/2000/svg"><path fill-rule="evenodd" clip-rule="evenodd" d="M16.001 3.667a8.333 8.333 0 1 0 0 16.666 8.333 8.333 0 0 0 0-16.666Zm6.447 16.409A10.314 10.314 0 0 0 26.335 12c0-5.707-4.627-10.334-10.334-10.334S5.668 6.293 5.668 12c0 3.269 1.518 6.183 3.887 8.077L8.343 29.2a1 1 0 0 0 1.506.99l6.118-3.671.034-.02.035.02 6.117 3.67a1 1 0 0 0 1.506-.988l-1.21-9.126Zm-1.86 1.186a10.29 10.29 0 0 1-4.587 1.071c-1.647 0-3.204-.385-4.586-1.07l-.816 6.145 4.339-2.603.042-.026c.146-.089.388-.236.664-.296.235-.052.48-.052.715 0 .276.06.517.207.664.296l.042.026 4.339 2.604-.816-6.147Z" fill="currentColor"/></symbol><symbol fill="none" viewBox="0 0 32 32" id="beaker" xmlns="http://www.w3.org/2000/svg"><path d="M13.333 2.667V8.88c0 .29 0 .434-.044.55a.625.625 0 0 1-.184.263c-.093.081-.244.136-.545.247A10.004 10.004 0 0 0 6 19.333c0 5.523 4.477 10 10 10s10-4.477 10-10c0-4.314-2.732-7.99-6.56-9.392-.301-.11-.452-.166-.545-.247a.625.625 0 0 1-.184-.264c-.044-.115-.044-.26-.044-.55V2.668m-7.334 0h9.334" stroke="currentColor" stroke-width="1.5" stroke-linecap="round" stroke-linejoin="round"/></symbol><symbol fill="none" viewBox="0 0 32 32" id="branch" xmlns="http://www.w3.org/2000/svg"><path d="M4 4v13.6c0 2.24 0 3.36.436 4.216a4 4 0 0 0 1.748 1.748C7.04 24 8.16 24 10.4 24H20m0 0a4 4 0 1 0 8 0 4 4 0 0 0-8 0ZM4 10.667h16m0 0a4 4 0 1 0 8 0 4 4 0 0 0-8 0Z" stroke="currentColor" stroke-width="1.5" stroke-linecap="round" stroke-linejoin="round"/></symbol><symbol fill="none" viewBox="0 0 32 32" id="briefcase" xmlns="http://www.w3.org/2000/svg"><path fill-rule="evenodd" clip-rule="evenodd" d="M15.845 3a389.232 389.232 0 0 0 .309 0c1.09 0 1.835 0 2.473.17a5 5 0 0 1 3.535 3.536c.123.458.158.971.167 1.627h2.778c.712 0 1.306 0 1.792.04.506.041.982.13 1.432.36.69.352 1.25.913 1.602 1.602.23.45.319.926.36 1.432.04.486.04 1.08.04 1.793v10.214c0 .712 0 1.307-.04 1.792-.041.507-.13.982-.36 1.432a3.666 3.666 0 0 1-1.602 1.602c-.45.23-.926.319-1.432.36-.486.04-1.08.04-1.792.04H6.892c-.712 0-1.307 0-1.792-.04-.507-.041-.982-.13-1.432-.36a3.666 3.666 0 0 1-1.602-1.602c-.23-.45-.319-.925-.36-1.432-.04-.485-.04-1.08-.04-1.792V13.559c0-.712 0-1.306.04-1.792.041-.506.13-.982.36-1.432.351-.69.912-1.25 1.602-1.602.45-.23.925-.319 1.432-.36.485-.04 1.08-.04 1.792-.04H9.67c.01-.656.044-1.169.166-1.627a5 5 0 0 1 3.536-3.536C14.01 3 14.754 3 15.845 3Zm-8.912 7.333c-.764 0-1.276.001-1.67.033-.383.032-.566.088-.687.15-.314.159-.569.414-.728.727-.062.121-.118.304-.149.687-.032.395-.033.907-.033 1.67v10.133c0 .764 0 1.276.033 1.67.031.383.087.566.149.687.16.314.414.569.728.728.12.062.304.118.687.15.394.031.906.032 1.67.032h18.133c.763 0 1.276 0 1.67-.033.383-.031.566-.087.687-.149.313-.16.568-.414.728-.728.062-.12.117-.304.149-.687.032-.394.033-.906.033-1.67V13.6c0-.763-.001-1.275-.033-1.67-.032-.383-.087-.566-.149-.687a1.666 1.666 0 0 0-.728-.728c-.121-.062-.304-.117-.687-.149-.395-.032-.907-.033-1.67-.033H6.933Zm13.395-2H11.67c.009-.58.033-.87.097-1.11a3 3 0 0 1 2.122-2.12C14.239 5.008 14.695 5 16 5c1.304 0 1.76.009 2.11.102a3 3 0 0 1 2.12 2.122c.065.24.089.53.098 1.11Z" fill="currentColor"/></symbol><symbol fill="none" viewBox="0 0 32 32" id="building-02" xmlns="http://www.w3.org/2000/svg"><path fill-rule="evenodd" clip-rule="evenodd" d="M8.226 3h15.548c.712 0 1.307 0 1.792.04.507.041.982.13 1.432.36.69.351 1.25.912 1.602 1.602.23.45.319.925.36 1.432.04.485.04 1.08.04 1.792v15.548c0 .712 0 1.307-.04 1.792-.041.507-.13.982-.36 1.432a3.668 3.668 0 0 1-1.602 1.602c-.45.23-.925.319-1.432.36-.485.04-1.08.04-1.792.04H8.226c-.712 0-1.307 0-1.792-.04-.507-.041-.982-.13-1.432-.36A3.667 3.667 0 0 1 3.4 26.998c-.23-.45-.319-.925-.36-1.432C3 25.081 3 24.486 3 23.774V8.226c0-.712 0-1.307.04-1.792.041-.507.13-.982.36-1.432.351-.69.912-1.25 1.602-1.602.45-.23.925-.319 1.432-.36C6.919 3 7.514 3 8.226 3ZM5 13.334v10.4c0 .763 0 1.275.033 1.67.031.382.087.565.149.686.16.314.414.569.728.728.12.062.304.118.687.149.394.032.906.033 1.67.033H11v-6.235c0-.343 0-.659.021-.922.024-.284.077-.595.233-.902.224-.44.581-.796 1.02-1.02.307-.156.618-.21.902-.233.264-.021.58-.021.922-.021h3.804c.343 0 .658 0 .922.021.284.023.595.077.902.233.439.224.796.58 1.02 1.02.156.307.21.618.233.902.021.263.021.579.021.922V27h2.733c.764 0 1.276 0 1.67-.033.383-.031.566-.087.687-.149.314-.16.569-.414.728-.728.062-.12.118-.304.149-.687.032-.394.033-.906.033-1.67v-10.4c-.836.628-1.874 1-3 1a4.992 4.992 0 0 1-4-2 4.992 4.992 0 0 1-4 2 4.992 4.992 0 0 1-4-2 4.992 4.992 0 0 1-4 2 4.978 4.978 0 0 1-3-1Zm8-4a3 3 0 1 0 6 0 1 1 0 1 1 2 0 3 3 0 1 0 6 0V8.266c0-.764 0-1.276-.033-1.67-.031-.383-.087-.566-.149-.687a1.666 1.666 0 0 0-.728-.728c-.12-.062-.304-.118-.687-.149-.394-.032-.906-.033-1.67-.033H8.267c-.764 0-1.276 0-1.67.033-.383.031-.566.087-.687.149-.314.16-.569.414-.728.728-.062.12-.118.304-.149.687C5.001 6.99 5 7.503 5 8.267v1.066a3 3 0 1 0 6 0 1 1 0 1 1 2 0ZM19 27v-6.2c0-.39 0-.622-.015-.794a.843.843 0 0 0-.023-.161.334.334 0 0 0-.14-.14.836.836 0 0 0-.161-.023 11.106 11.106 0 0 0-.794-.015h-3.734c-.39 0-.622 0-.794.014a.834.834 0 0 0-.161.024.334.334 0 0 0-.14.14.845.845 0 0 0-.023.16C13 20.179 13 20.41 13 20.8V27h6Zm-5.96-7.159-.001.002Zm.135-.135h.002Zm5.65 0h-.001Zm.135.135.001.002Z" fill="currentColor"/></symbol><symbol fill="none" viewBox="0 0 32 32" id="building-07" xmlns="http://www.w3.org/2000/svg"><path fill-rule="evenodd" clip-rule="evenodd" d="M14.225 3h3.548c.712 0 1.307 0 1.793.04.506.041.982.13 1.431.36.69.351 1.251.912 1.603 1.602.229.45.318.925.36 1.432.04.485.04 1.08.04 1.792v5.44H25.9c.343 0 .659 0 .922.022.284.023.595.076.902.233.44.224.796.58 1.02 1.02.156.307.21.618.233.902.021.263.021.579.021.922V27h.334a1 1 0 1 1 0 2H2.666a1 1 0 1 1 0-2h.333V16.765c0-.343 0-.659.022-.922.023-.284.076-.595.233-.902.223-.44.58-.796 1.02-1.02.306-.156.617-.21.902-.233.263-.021.578-.021.922-.021h2.901v-5.44c0-.713 0-1.308.04-1.793.041-.507.13-.982.36-1.432.352-.69.913-1.25 1.602-1.602.45-.23.926-.319 1.432-.36C12.92 3 13.513 3 14.225 3ZM9 15.667H6.133c-.39 0-.622 0-.795.014a.835.835 0 0 0-.16.024.334.334 0 0 0-.14.14.838.838 0 0 0-.024.16C5 16.179 5 16.41 5 16.8V27h4V15.667ZM11 27V8.267c0-.764.001-1.276.033-1.67.032-.383.088-.566.149-.687.16-.314.415-.569.728-.728.121-.062.304-.118.687-.149.395-.032.907-.033 1.67-.033h3.467c.763 0 1.275 0 1.67.033.383.031.566.087.686.149.314.16.569.414.729.728.061.12.117.304.148.687.033.394.033.906.033 1.67V27H11Zm12 0h4V16.8c0-.39 0-.622-.014-.794a.836.836 0 0 0-.024-.161.333.333 0 0 0-.14-.14.834.834 0 0 0-.16-.024 11.105 11.105 0 0 0-.795-.014h-2.867V27Zm3.826-11.294h-.002Zm.135.135v.002Zm-21.922.002.001-.002Zm.136-.137h.002Zm8.492-6.373a1 1 0 0 1 1-1h2.667a1 1 0 1 1 0 2h-2.667a1 1 0 0 1-1-1Zm0 5.334a1 1 0 0 1 1-1h2.667a1 1 0 1 1 0 2h-2.667a1 1 0 0 1-1-1Zm0 5.333a1 1 0 0 1 1-1h2.667a1 1 0 1 1 0 2h-2.667a1 1 0 0 1-1-1Z" fill="currentColor"/></symbol><symbol fill="none" viewBox="0 0 32 32" id="chart-breakout-circle" xmlns="http://www.w3.org/2000/svg"><path fill-rule="evenodd" clip-rule="evenodd" d="M20.666 1.667a1 1 0 0 1 1 1v2a1 1 0 1 1-2 0v-2a1 1 0 0 1 1-1Zm-5.005.967a1 1 0 0 1-.896 1.093C8.533 4.347 3.666 9.605 3.666 16c0 .245.007.488.021.729.965.178 1.961.27 2.979.27 4.783 0 9.086-2.054 12.074-5.332H16a1 1 0 0 1 0-2h5.333a1 1 0 0 1 1 1V16a1 1 0 1 1-2 0v-3.113A18.29 18.29 0 0 1 6.666 19c-.91 0-1.804-.067-2.68-.195 1.27 5.46 6.167 9.528 12.013 9.528 6.395 0 11.654-4.867 12.273-11.099a1 1 0 0 1 1.99.198c-.72 7.244-6.83 12.901-14.263 12.901-7.916 0-14.333-6.417-14.333-14.333 0-7.433 5.657-13.544 12.901-14.263a1 1 0 0 1 1.094.897ZM28.04 3.959a1 1 0 0 1 0 1.415l-1.414 1.414a1 1 0 1 1-1.415-1.414l1.415-1.415a1 1 0 0 1 1.414 0Zm-1.694 7.374a1 1 0 0 1 1-1h2a1 1 0 0 1 0 2h-2a1 1 0 0 1-1-1Z" fill="currentColor"/></symbol><symbol fill="none" viewBox="0 0 32 32" id="chart-up" xmlns="http://www.w3.org/2000/svg"><path fill-rule="evenodd" clip-rule="evenodd" d="M4 3a1 1 0 0 1 1 1v21.867c0 .39 0 .622.015.794a.84.84 0 0 0 .023.161c.032.06.08.108.14.14a.844.844 0 0 0 .161.023c.172.014.404.015.794.015H28a1 1 0 1 1 0 2H6.098c-.343 0-.658 0-.922-.021a2.366 2.366 0 0 1-.902-.233 2.334 2.334 0 0 1-1.02-1.02 2.366 2.366 0 0 1-.233-.902C3 26.56 3 26.244 3 25.902V4a1 1 0 0 1 1-1Zm1.175 23.96.001.001h-.002Zm-.135-.134-.001-.003v.003Zm17.627-16.493a1 1 0 1 1 0-2H28a1 1 0 0 1 1 1v5.334a1 1 0 1 1-2 0v-2.92l-5.558 5.558c-.115.116-.24.24-.357.34-.132.112-.318.249-.57.33a1.666 1.666 0 0 1-1.03 0 1.679 1.679 0 0 1-.57-.33 6.298 6.298 0 0 1-.357-.34l-2.51-2.51-.048-.047-.047.047-5.913 5.912a1 1 0 0 1-1.414-1.414l5.913-5.912.019-.02c.115-.115.24-.24.357-.339a1.68 1.68 0 0 1 .57-.331 1.667 1.667 0 0 1 1.03 0c.252.082.438.219.57.331.117.1.242.224.357.34l2.51 2.51.048.047.047-.047 5.539-5.539h-2.92Z" fill="currentColor"/></symbol><symbol fill="none" viewBox="0 0 32 32" id="code" xmlns="http://www.w3.org/2000/svg"><path fill-rule="evenodd" clip-rule="evenodd" d="M18.883 3.024a1 1 0 0 1 .76 1.193l-5.334 24a1 1 0 1 1-1.952-.434l5.333-24a1 1 0 0 1 1.193-.759ZM10.04 8.626a1 1 0 0 1 0 1.415L4.08 16l5.96 5.959a1 1 0 0 1-1.414 1.414l-6.667-6.667a1 1 0 0 1 0-1.414l6.667-6.667a1 1 0 0 1 1.414 0Zm11.919 0a1 1 0 0 1 1.414 0l6.667 6.667a1 1 0 0 1 0 1.414l-6.667 6.667a1 1 0 0 1-1.414-1.414l5.96-5.96-5.96-5.96a1 1 0 0 1 0-1.414Z" fill="currentColor"/></symbol><symbol fill="none" viewBox="0 0 32 32" id="credit-card-02" xmlns="http://www.w3.org/2000/svg"><path fill-rule="evenodd" clip-rule="evenodd" d="M6.892 5.667h18.215c.712 0 1.306 0 1.792.04.506.04.982.13 1.432.36.69.35 1.25.912 1.602 1.602.23.45.319.925.36 1.431.04.486.04 1.08.04 1.793v10.214c0 .712 0 1.307-.04 1.792-.041.507-.13.982-.36 1.432a3.666 3.666 0 0 1-1.602 1.602c-.45.23-.926.32-1.432.36-.486.04-1.08.04-1.792.04H6.892c-.712 0-1.307 0-1.792-.04-.507-.04-.982-.13-1.432-.36a3.666 3.666 0 0 1-1.602-1.602c-.23-.45-.319-.925-.36-1.432-.04-.485-.04-1.08-.04-1.792V10.892c0-.712 0-1.306.04-1.792.041-.506.13-.982.36-1.431.351-.69.912-1.251 1.602-1.603.45-.229.925-.318 1.432-.36.485-.04 1.08-.04 1.792-.04Zm-3.226 8.666v6.734c0 .763 0 1.275.033 1.67.031.382.087.565.149.686.16.314.414.569.728.729.12.061.304.117.687.148.394.032.906.033 1.67.033h18.133c.763 0 1.276 0 1.67-.033.383-.031.566-.087.687-.149.313-.16.568-.414.728-.728.062-.12.117-.304.149-.686.032-.395.033-.907.033-1.67v-6.734H3.666Zm24.667-2H3.666v-1.4c0-.763 0-1.275.033-1.67.031-.383.087-.566.149-.686.16-.314.414-.57.728-.729.12-.061.304-.117.687-.148.394-.033.906-.034 1.67-.034h18.133c.763 0 1.276.001 1.67.034.383.03.566.087.687.148.313.16.568.415.728.729.062.12.117.303.149.686.032.395.033.907.033 1.67v1.4ZM6.999 18.666a1 1 0 0 1 1-1h6.667a1 1 0 1 1 0 2H7.999a1 1 0 0 1-1-1Z" fill="currentColor"/></symbol><symbol fill="none" viewBox="0 0 32 32" id="dataflow-01" xmlns="http://www.w3.org/2000/svg"><path fill-rule="evenodd" clip-rule="evenodd" d="M25.333 3.667a1.667 1.667 0 1 0 0 3.333 1.667 1.667 0 0 0 0-3.333Zm-3.528.667a3.668 3.668 0 0 1 7.195 1 3.667 3.667 0 0 1-7.195 1c-.828.002-1.448.01-1.95.05-.606.05-.954.142-1.217.277a3 3 0 0 0-1.311 1.31c-.134.264-.226.612-.276 1.217-.05.617-.051 1.41-.051 2.546V15h4.805A3.668 3.668 0 0 1 29 16a3.667 3.667 0 0 1-7.195 1H17v3.267c0 1.137 0 1.929.051 2.546.05.605.142.953.276 1.216a3 3 0 0 0 1.311 1.311c.263.134.611.226 1.216.276.503.04 1.123.049 1.95.05A3.668 3.668 0 0 1 29 26.668a3.667 3.667 0 0 1-7.195 1c-.834-.002-1.53-.01-2.114-.058-.729-.06-1.369-.185-1.961-.487a4.999 4.999 0 0 1-2.185-2.185c-.302-.592-.428-1.233-.487-1.961C15 22.268 15 21.394 15 20.31V17h-4.805A3.668 3.668 0 0 1 3 16a3.667 3.667 0 0 1 7.195-1H15v-3.31c0-1.083 0-1.957.058-2.665.06-.729.185-1.369.487-1.961a5 5 0 0 1 2.185-2.185c.592-.302 1.232-.428 1.961-.488.584-.047 1.28-.056 2.114-.057Zm-15.138 10a1.667 1.667 0 1 0 0 3.333 1.667 1.667 0 0 0 0-3.333Zm18.666 0a1.667 1.667 0 1 0 0 3.333 1.667 1.667 0 0 0 0-3.333Zm0 10.666a1.667 1.667 0 1 0 0 3.334 1.667 1.667 0 0 0 0-3.334Z" fill="currentColor"/></symbol><symbol fill="none" viewBox="0 0 32 32" id="eye" xmlns="http://www.w3.org/2000/svg"><path fill-rule="evenodd" clip-rule="evenodd" d="M8.265 10.735c-2.045 1.707-3.472 3.708-4.193 4.848a4.38 4.38 0 0 0-.168.279.23.23 0 0 0-.024.059.703.703 0 0 0 0 .159.229.229 0 0 0 .024.059c.028.054.07.123.168.278.72 1.14 2.148 3.142 4.193 4.849 2.042 1.705 4.641 3.068 7.735 3.068 3.095 0 5.694-1.363 7.736-3.068 2.046-1.707 3.473-3.708 4.193-4.849.098-.155.14-.224.169-.278a.232.232 0 0 0 .024-.06l.001-.015a.703.703 0 0 0 0-.128l-.001-.015a.232.232 0 0 0-.024-.06 4.348 4.348 0 0 0-.17-.278c-.72-1.14-2.146-3.141-4.192-4.848C21.694 9.03 19.095 7.667 16 7.667c-3.094 0-5.693 1.363-7.735 3.068ZM6.983 9.199c2.267-1.892 5.305-3.532 9.018-3.532 3.712 0 6.75 1.64 9.017 3.532 2.265 1.89 3.821 4.08 4.602 5.316l.029.047c.158.25.333.526.423.917a2.55 2.55 0 0 1 0 1.043c-.09.391-.265.667-.423.917l-.03.046c-.78 1.236-2.336 3.426-4.601 5.316-2.267 1.893-5.305 3.533-9.018 3.533-3.712 0-6.75-1.64-9.017-3.533-2.265-1.89-3.821-4.08-4.602-5.316l-.029-.046c-.158-.25-.333-.526-.423-.917a2.547 2.547 0 0 1 0-1.043c.09-.391.265-.668.423-.917l.03-.047c.78-1.235 2.336-3.425 4.601-5.316ZM16.001 13a3 3 0 1 0 0 6 3 3 0 0 0 0-6Zm-5 3a5 5 0 1 1 10 0 5 5 0 0 1-10 0Z" fill="currentColor"/></symbol><symbol fill="none" viewBox="0 0 32 32" id="fish" xmlns="http://www.w3.org/2000/svg"><g clip-path="url(#aoa)" fill="currentColor"><path d="M21.563 15.06a1.438 1.438 0 1 0 2.034-2.034 1.438 1.438 0 0 0-2.034 2.034Z"/><path fill-rule="evenodd" clip-rule="evenodd" d="M27.859 10.988a22.842 22.842 0 0 1 3.345 4.044l.004.006a1.942 1.942 0 0 1 0 2.078l-.004.006a22.802 22.802 0 0 1-3.345 4.044c-1.668 1.59-3.91 3.192-6.644 3.887-2.764.704-5.954.459-9.428-1.523-2.176-1.242-4.451-3.156-6.81-5.925a55.38 55.38 0 0 0-2.602 3.735.96.96 0 1 1-1.614-1.035 56.998 56.998 0 0 1 2.972-4.228 56.932 56.932 0 0 1-2.972-4.228.959.959 0 0 1 1.614-1.035 56.214 56.214 0 0 0 2.602 3.735c2.359-2.769 4.634-4.683 6.81-5.925 3.474-1.981 6.664-2.227 9.428-1.523 2.734.697 4.976 2.297 6.644 3.887ZM6.196 16.077c2.335 2.792 4.526 4.637 6.542 5.787 3.054 1.742 5.733 1.91 8.004 1.33 2.302-.585 4.264-1.96 5.794-3.417a20.937 20.937 0 0 0 3.052-3.688.024.024 0 0 0 0-.024 20.934 20.934 0 0 0-3.052-3.689c-1.53-1.458-3.492-2.83-5.794-3.416-2.27-.579-4.95-.412-8.004 1.33-2.016 1.15-4.207 2.994-6.542 5.787Z"/><path fill-rule="evenodd" clip-rule="evenodd" d="M31.092 15.105a22.714 22.714 0 0 0-3.326-4.021c-1.658-1.58-3.88-3.165-6.584-3.854m10.13 7.725a22.982 22.982 0 0 0-3.361-4.064c-1.678-1.598-3.94-3.215-6.703-3.92-2.799-.712-6.023-.46-9.527 1.537-2.159 1.232-4.41 3.119-6.738 5.829a56.415 56.415 0 0 1-2.495-3.595 1.093 1.093 0 0 0-1.84 1.179m30.664 3.034.01.012a2.077 2.077 0 0 1-.001 2.22l-.007.011-.002.001a22.938 22.938 0 0 1-3.361 4.064c-1.678 1.598-3.94 3.216-6.703 3.92-2.799.712-6.023.461-9.527-1.537-2.159-1.232-4.41-3.118-6.738-5.829a55.555 55.555 0 0 0-2.495 3.595 1.093 1.093 0 0 1-1.84-1.178 57.126 57.126 0 0 1 2.917-4.157 57.087 57.087 0 0 1-2.916-4.156m30.443 3.184.006.01Zm.006.01a1.813 1.813 0 0 1 .001 1.924l-.008.01a22.673 22.673 0 0 1-3.324 4.021c-1.659 1.58-3.881 3.166-6.585 3.854-2.73.695-5.884.455-9.33-1.51-2.158-1.232-4.422-3.135-6.774-5.895l-.107-.126-.1.131a55.504 55.504 0 0 0-2.608 3.744.826.826 0 0 1-1.39-.89 56.872 56.872 0 0 1 2.966-4.22l.063-.08-.063-.082a56.795 56.795 0 0 1-2.965-4.218.826.826 0 0 1 1.39-.892A56.343 56.343 0 0 0 4.87 14.63l.1.131.107-.125c2.352-2.76 4.616-4.664 6.775-5.896 3.445-1.965 6.599-2.205 9.33-1.51m5.446 5.05a21.067 21.067 0 0 1 3.072 3.713l.006.01a.157.157 0 0 1-.005.156l-.002.003a21.07 21.07 0 0 1-3.072 3.712c-1.539 1.466-3.52 2.856-5.853 3.45-2.306.587-5.02.415-8.103-1.344-2.033-1.16-4.236-3.016-6.579-5.817l-.071-.086.071-.085c2.343-2.803 4.546-4.658 6.579-5.818 3.083-1.759 5.798-1.93 8.103-1.343 2.332.593 4.314 1.982 5.854 3.449Zm-.185.193a20.805 20.805 0 0 1 2.993 3.604 20.803 20.803 0 0 1-2.993 3.604c-1.52 1.448-3.462 2.806-5.735 3.384-2.237.57-4.88.409-7.905-1.317-1.979-1.128-4.133-2.935-6.434-5.67 2.3-2.737 4.455-4.544 6.434-5.672 3.024-1.726 5.669-1.886 7.905-1.317 2.272.578 4.214 1.935 5.735 3.383Z"/><path fill-rule="evenodd" clip-rule="evenodd" d="M20.681 7.155a.958.958 0 0 1-.02 1.356 10.547 10.547 0 0 0-.008 15.125.96.96 0 0 1-1.337 1.374 12.465 12.465 0 0 1 .01-17.875.958.958 0 0 1 1.355.02Z"/></g><defs><clipPath id="aoa"><path fill="#fff" d="M0 0h32v32H0z"/></clipPath></defs></symbol><symbol fill="none" viewBox="0 0 32 32" id="graduation-hat-01" xmlns="http://www.w3.org/2000/svg"><path fill-rule="evenodd" clip-rule="evenodd" d="m16 5.784-.03.015-11.068 5.534 2.192 1.096.037.019 8.838 4.419.03.015.03-.015 8.838-4.42a.931.931 0 0 1 .038-.018l2.192-1.096L16.029 5.8 16 5.784Zm10.333 8.167 3.447-1.724a1 1 0 0 0 0-1.788L16.924 4.01a7.765 7.765 0 0 1-.037-.019c-.13-.066-.343-.174-.58-.218a1.667 1.667 0 0 0-.615 0c-.238.044-.45.152-.58.218a6.953 6.953 0 0 1-.037.019L2.22 10.439a1 1 0 0 0 0 1.788l3.447 1.724v7.492c-.001.38-.002.784.128 1.16.112.327.296.625.538.872l.715-.7-.715.7c.279.284.641.464.98.633l.086.043 7.2 3.6.07.034c.277.14.575.29.901.35.284.054.576.054.86 0 .327-.06.624-.21.902-.35l.07-.035 7.2-3.6.085-.042c.34-.169.702-.349.98-.633l-.571-.56.571.56c.242-.247.426-.545.54-.872.129-.376.128-.78.127-1.16v-7.492Zm-2 1-7.41 3.705-.036.018c-.13.066-.343.174-.58.218a1.667 1.667 0 0 1-.615 0 2.202 2.202 0 0 1-.58-.218l-.037-.018-7.409-3.705v6.397c0 .251 0 .395.007.503a.67.67 0 0 0 .012.1.333.333 0 0 0 .076.124.66.66 0 0 0 .085.056c.094.054.222.118.447.23l-.448.895.448-.894 7.2 3.6c.184.092.287.143.368.178a.63.63 0 0 0 .077.03c.04.008.082.008.123 0a.63.63 0 0 0 .077-.03 8.76 8.76 0 0 0 .368-.178l7.2-3.6c.225-.113.353-.177.447-.231a.665.665 0 0 0 .085-.056.334.334 0 0 0 .076-.123.662.662 0 0 0 .012-.101c.006-.108.007-.252.007-.503v-6.397Zm-.095 7.125.714.7-.715-.7a.012.012 0 0 1 .003-.002l-.002.001M7.76 22.074l.002.001-.002-.001Zm-.074-.12v-.002.002Z" fill="currentColor"/></symbol><symbol fill="none" viewBox="0 0 32 32" id="hammer" xmlns="http://www.w3.org/2000/svg"><path fill-rule="evenodd" clip-rule="evenodd" d="M28.098 10.807a.995.995 0 0 1-.704.291H19.86v18.907a.995.995 0 0 1-.995.995h-5.686a.995.995 0 0 1-.995-.995V11.098H3.938a.995.995 0 0 1-.995-.995V6.717a.995.995 0 0 1 .55-.89L11.148 2h16.247a.995.995 0 0 1 .995.995v7.108a.995.995 0 0 1-.291.704Zm-7.385-1.699V3.99h-9.096L4.934 7.332v1.776h9.24V29.01h3.696V9.108h2.843Zm5.686-5.118v5.118h-3.696V3.99H26.4Z" fill="currentColor"/></symbol><symbol fill="none" viewBox="0 0 32 32" id="heart" xmlns="http://www.w3.org/2000/svg"><path fill-rule="evenodd" clip-rule="evenodd" d="M15.992 5.405c-3.014-2.806-7.58-3.427-11.1-.419C1.15 8.183.61 13.56 3.563 17.361c1.145 1.473 3.397 3.705 5.582 5.768a246.392 246.392 0 0 0 5.489 5.007l.018.017c.105.092.222.197.333.28.129.097.302.209.53.276.31.093.643.093.953 0 .227-.067.4-.179.53-.276.11-.084.228-.188.333-.28l.018-.017c1.085-.96 3.285-2.927 5.489-5.007 2.185-2.063 4.436-4.295 5.582-5.768 2.945-3.79 2.485-9.206-1.338-12.383-3.565-2.963-8.08-2.38-11.091.427Zm-.76 2.093c-2.371-2.773-6.193-3.425-9.041-.991-2.939 2.51-3.34 6.678-1.048 9.627 1.036 1.332 3.175 3.463 5.376 5.54a244.7 244.7 0 0 0 5.473 4.993l.032-.028c1.078-.955 3.26-2.905 5.442-4.965 2.201-2.077 4.34-4.208 5.375-5.54 2.3-2.96 1.935-7.148-1.037-9.618-2.916-2.424-6.688-1.782-9.052.982a1 1 0 0 1-1.52 0Z" fill="currentColor"/></symbol><symbol fill="none" viewBox="0 0 32 32" id="home" xmlns="http://www.w3.org/2000/svg"><path fill-rule="evenodd" clip-rule="evenodd" d="M15.915 4.034a.73.73 0 0 0-.11.064 9.92 9.92 0 0 0-.5.377L6.26 11.508c-.649.505-.817.647-.934.805-.12.163-.21.347-.265.542-.053.19-.062.41-.062 1.232v9.646c0 .764 0 1.276.033 1.67.031.383.087.566.149.687.16.314.415.569.728.728.12.062.304.118.687.149.394.032.907.033 1.67.033H11v-8.902c0-.343 0-.658.022-.922.023-.284.076-.595.232-.902.224-.439.581-.796 1.02-1.02.307-.156.618-.21.902-.232.264-.022.58-.022.922-.022h3.804c.343 0 .658 0 .922.021.284.024.595.077.902.233.44.224.796.581 1.02 1.02.156.307.21.618.233.902.021.264.021.579.021.922V27h2.733c.764 0 1.276 0 1.67-.033.383-.031.566-.087.687-.149.314-.16.569-.414.728-.728.062-.12.118-.304.15-.687.031-.394.032-.906.032-1.67v-9.646c0-.823-.009-1.043-.062-1.232a1.664 1.664 0 0 0-.265-.542c-.116-.158-.285-.3-.934-.805l-9.043-7.033a9.92 9.92 0 0 0-.501-.377.73.73 0 0 0-.11-.064.333.333 0 0 0-.17 0Zm.168-.001h.002ZM23.774 29c.712 0 1.307 0 1.792-.04.507-.041.982-.13 1.432-.36a3.667 3.667 0 0 0 1.602-1.602c.23-.45.32-.925.36-1.432.04-.485.04-1.08.04-1.792v-9.801c0-.655 0-1.17-.136-1.657a3.667 3.667 0 0 0-.583-1.192c-.3-.408-.707-.723-1.224-1.124l-.09-.07-9.043-7.034a36.65 36.65 0 0 1-.095-.074c-.367-.288-.759-.594-1.22-.718-.398-.109-.82-.109-1.219 0-.46.124-.851.43-1.22.718-.03.025-.062.05-.094.074L5.033 9.929l-.09.07c-.516.402-.923.717-1.224 1.125a3.667 3.667 0 0 0-.583 1.192C2.999 12.804 3 13.318 3 13.972v9.802c0 .712 0 1.307.04 1.792.041.507.13.982.36 1.432.351.69.912 1.25 1.602 1.602.45.23.925.319 1.432.36.486.04 1.08.04 1.792.04h15.548ZM19 27v-8.867c0-.39 0-.622-.015-.794a.845.845 0 0 0-.023-.161.334.334 0 0 0-.14-.14.838.838 0 0 0-.16-.023 11.168 11.168 0 0 0-.795-.015h-3.734c-.39 0-.622 0-.794.015a.834.834 0 0 0-.16.023.334.334 0 0 0-.14.14.845.845 0 0 0-.024.161c-.014.172-.015.404-.015.794V27h6Zm-5.96-9.826-.001.003Zm.135-.134.002-.001Zm5.65 0-.001-.001Zm.136.134v.003Zm-3.046-13.14a.047.047 0 0 1 .003-.001Z" fill="currentColor"/></symbol><symbol fill="none" viewBox="0 0 32 32" id="horizontal-bar-chart-01" xmlns="http://www.w3.org/2000/svg"><path fill-rule="evenodd" clip-rule="evenodd" d="M4 1.667a1 1 0 0 1 1 1V5h15.568c.344 0 .659 0 .922.022.285.023.596.076.903.233.439.223.796.58 1.02 1.02.156.306.209.617.232.901.022.264.022.58.022.923v3.568h2.235c.343 0 .658 0 .922.021.284.024.595.077.902.233.439.224.796.581 1.02 1.02.156.307.21.618.233.902.021.264.021.579.021.922v2.47c0 .344 0 .659-.021.922a2.366 2.366 0 0 1-.233.903c-.224.439-.581.796-1.02 1.02-.307.156-.618.209-.902.232-.264.022-.58.022-.922.022h-7.569v3.568c0 .343 0 .659-.021.922a2.365 2.365 0 0 1-.233.902c-.224.44-.58.796-1.02 1.02-.307.157-.618.21-.902.233-.263.021-.579.021-.922.021H5v2.334a1 1 0 0 1-2 0V2.667a1 1 0 0 1 1-1ZM5 7v4.667h16.667V8.134c0-.39-.001-.622-.015-.795a.835.835 0 0 0-.024-.16.333.333 0 0 0-.14-.14.835.835 0 0 0-.16-.024A11.115 11.115 0 0 0 20.533 7H5Zm16.492.04h-.002Zm.135.135v.002ZM5 13.667v4.667h20.867c.39 0 .622-.001.794-.015a.836.836 0 0 0 .161-.024.333.333 0 0 0 .14-.14.843.843 0 0 0 .023-.16C27 17.823 27 17.59 27 17.2v-2.4c0-.39 0-.622-.015-.794a.845.845 0 0 0-.023-.161.334.334 0 0 0-.14-.14.845.845 0 0 0-.161-.023 11.168 11.168 0 0 0-.794-.015H5Zm21.96.175.001.002Zm0 4.317.001-.002Zm-.134.135h-.003Zm-10.493 2.04H5V25h10.2c.39 0 .622 0 .794-.015a.836.836 0 0 0 .161-.023.334.334 0 0 0 .14-.14.836.836 0 0 0 .023-.16c.015-.173.015-.405.015-.795v-3.533Zm-.04 4.492.001-.002Zm-.134.135h-.002Z" fill="currentColor"/></symbol><symbol fill="none" viewBox="0 0 80 80" id="icon-1" xmlns="http://www.w3.org/2000/svg"><circle cx="40.001" cy="39.999" r="38.344" stroke="#00A8F2" stroke-width="2"/><path opacity=".2" d="M58.672 40c0 10.743-2.179 20.42-5.656 27.373C49.51 74.386 44.85 78.343 40 78.343s-9.509-3.957-13.016-10.97c-3.477-6.954-5.656-16.63-5.656-27.374 0-10.743 2.18-20.42 5.656-27.373C30.491 5.613 35.151 1.656 40 1.656c4.85 0 9.51 3.957 13.016 10.97 3.477 6.954 5.656 16.63 5.656 27.373ZM41 .655v78.689" stroke="#00A8F2" stroke-width="2"/></symbol><symbol fill="none" viewBox="0 0 80 80" id="icon-10" xmlns="http://www.w3.org/2000/svg"><g clip-path="url(#ava)" fill-rule="evenodd" clip-rule="evenodd" fill="#00A8F2"><path d="M40 77.344c20.625 0 37.345-16.72 37.345-37.344 0-20.625-16.72-37.345-37.344-37.345C19.376 2.655 2.656 19.375 2.656 40c0 20.625 16.72 37.345 37.345 37.345Zm0 2c21.73 0 39.345-17.615 39.345-39.344C79.345 18.27 61.73.654 40 .654 18.27.655.656 18.27.656 40c0 21.73 17.615 39.345 39.345 39.345Z"/><path opacity=".2" d="M24 40h32v2H24v-2Z"/><path d="M40 56V24h2v32h-2Z"/></g><defs><clipPath id="ava"><path fill="#fff" d="M0 0h80v80H0z"/></clipPath></defs></symbol><symbol fill="none" viewBox="0 0 80 80" id="icon-11" xmlns="http://www.w3.org/2000/svg"><g clip-path="url(#awa)" fill-rule="evenodd" clip-rule="evenodd" fill="#00A8F2"><path d="M40 77.344c20.625 0 37.345-16.72 37.345-37.344 0-20.625-16.72-37.345-37.344-37.345C19.376 2.655 2.656 19.375 2.656 40c0 20.625 16.72 37.345 37.345 37.345Zm0 2c21.73 0 39.345-17.615 39.345-39.344C79.345 18.27 61.73.654 40 .654 18.27.655.656 18.27.656 40c0 21.73 17.615 39.345 39.345 39.345Z"/><path d="M34.285 31.799a8 8 0 1 0 11.313-11.314A8 8 0 0 0 34.285 31.8Zm-1.415 1.414c3.906 3.905 10.237 3.905 14.143 0 3.905-3.905 3.905-10.237 0-14.142-3.906-3.905-10.237-3.905-14.143 0-3.905 3.905-3.905 10.237 0 14.142Z"/><path opacity=".2" d="M50.083 55.598a8 8 0 1 0 11.314-11.314 8 8 0 0 0-11.314 11.314Zm-1.414 1.414c3.905 3.905 10.237 3.905 14.142 0 3.905-3.905 3.905-10.237 0-14.142-3.905-3.905-10.237-3.905-14.142 0-3.905 3.905-3.905 10.237 0 14.142ZM18.486 55.598a8 8 0 1 0 11.313-11.314 8 8 0 0 0-11.313 11.314Zm-1.415 1.414c3.906 3.905 10.237 3.905 14.143 0 3.905-3.905 3.905-10.237 0-14.142-3.906-3.905-10.237-3.905-14.142 0-3.906 3.905-3.906 10.237 0 14.142Z"/></g><defs><clipPath id="awa"><path fill="#fff" d="M0 0h80v80H0z"/></clipPath></defs></symbol><symbol fill="none" viewBox="0 0 80 80" id="icon-12" xmlns="http://www.w3.org/2000/svg"><g clip-path="url(#axa)" fill-rule="evenodd" clip-rule="evenodd" fill="#00A8F2"><path d="M40 77.344c20.625 0 37.345-16.72 37.345-37.344 0-20.625-16.72-37.345-37.344-37.345C19.376 2.655 2.656 19.375 2.656 40c0 20.625 16.72 37.345 37.345 37.345Zm0 2c21.73 0 39.345-17.615 39.345-39.344C79.345 18.27 61.73.654 40 .654 18.27.655.656 18.27.656 40c0 21.73 17.615 39.345 39.345 39.345Z"/><path d="M16 31a9 9 0 0 1 9-9h30a9 9 0 0 1 9 9v40h-2V31a7 7 0 0 0-7-7H25a7 7 0 0 0-7 7v40h-2V31Z"/><path opacity=".2" d="M40 55a8 8 0 1 0 0-16 8 8 0 0 0 0 16Zm0 2c5.523 0 10-4.477 10-10s-4.477-10-10-10-10 4.477-10 10 4.477 10 10 10Z"/></g><defs><clipPath id="axa"><path fill="#fff" d="M0 0h80v80H0z"/></clipPath></defs></symbol><symbol fill="none" viewBox="0 0 80 80" id="icon-2" xmlns="http://www.w3.org/2000/svg"><circle cx="40.001" cy="40" r="38.344" stroke="#00A8F2" stroke-width="2"/><circle opacity=".2" cx="39.999" cy="40" r="25.23" stroke="#00A8F2" stroke-width="2"/><circle cx="39.998" cy="40" r="12.115" stroke="#00A8F2" stroke-width="2"/></symbol><symbol fill="none" viewBox="0 0 80 80" id="icon-3" xmlns="http://www.w3.org/2000/svg"><circle cx="40.001" cy="39.999" r="38.344" stroke="#00A8F2" stroke-width="2"/><path opacity=".2" stroke="#00A8F2" stroke-width="2" d="M79.344 40.999H.655M41 .655v78.689"/></symbol><symbol fill="none" viewBox="0 0 80 80" id="icon-4" xmlns="http://www.w3.org/2000/svg"><circle cx="40.001" cy="40" r="38.344" stroke="#00A8F2" stroke-width="2"/><circle opacity=".2" cx="39.999" cy="53.115" r="25.23" stroke="#00A8F2" stroke-width="2"/><circle cx="39.998" cy="66.23" r="12.115" stroke="#00A8F2" stroke-width="2"/></symbol><symbol fill="none" viewBox="0 0 80 80" id="icon-5" xmlns="http://www.w3.org/2000/svg"><path opacity=".2" fill-rule="evenodd" clip-rule="evenodd" d="M15 30a5 5 0 0 1 5-5h28a5 5 0 0 1 5 5v13.238h-2V30a3 3 0 0 0-3-3H20a3 3 0 0 0-3 3v40h-2V30Z" fill="#00A8F2"/><path fill-rule="evenodd" clip-rule="evenodd" d="M35 48a5 5 0 0 1 5-5h20a5 5 0 0 1 5 5v22.421h-2V48a3 3 0 0 0-3-3H40a3 3 0 0 0-3 3v30h-2V48Z" fill="#00A8F2"/><path fill-rule="evenodd" clip-rule="evenodd" d="M40 77.344c20.625 0 37.345-16.72 37.345-37.344 0-20.625-16.72-37.345-37.344-37.345C19.376 2.655 2.656 19.375 2.656 40c0 20.625 16.72 37.345 37.345 37.345Zm0 2c21.73 0 39.345-17.615 39.345-39.344C79.345 18.27 61.73.654 40 .654 18.27.655.656 18.27.656 40c0 21.73 17.615 39.345 39.345 39.345Z" fill="#00A8F2"/></symbol><symbol fill="none" viewBox="0 0 80 80" id="icon-6" xmlns="http://www.w3.org/2000/svg"><path fill-rule="evenodd" clip-rule="evenodd" d="M40 77.344c20.625 0 37.345-16.72 37.345-37.344 0-20.625-16.72-37.345-37.344-37.345C19.376 2.655 2.656 19.375 2.656 40c0 20.625 16.72 37.345 37.345 37.345Zm0 2c21.73 0 39.345-17.615 39.345-39.344C79.345 18.27 61.73.654 40 .654 18.27.655.656 18.27.656 40c0 21.73 17.615 39.345 39.345 39.345Z" fill="#00A8F2"/><path fill-rule="evenodd" clip-rule="evenodd" d="M31.417 49.278C33.58 50.942 36.612 52 40 52s6.42-1.058 8.583-2.722C50.745 47.615 52 45.387 52 43h2c0 3.136-1.655 5.908-4.198 7.864C47.26 52.819 43.792 54 40 54c-3.791 0-7.26-1.181-9.802-3.136C27.655 48.908 26 46.136 26 43h2c0 2.387 1.255 4.615 3.417 6.278Z" fill="#00A8F2"/><path opacity=".2" fill-rule="evenodd" clip-rule="evenodd" d="M40 64c13.255 0 24-10.745 24-24S53.255 16 40 16 16 26.745 16 40s10.745 24 24 24Zm0 2c14.36 0 26-11.64 26-26S54.36 14 40 14 14 25.64 14 40s11.64 26 26 26Z" fill="#00A8F2"/></symbol><symbol fill="none" viewBox="0 0 80 80" id="icon-7" xmlns="http://www.w3.org/2000/svg"><g clip-path="url(#bda)" fill-rule="evenodd" clip-rule="evenodd" fill="#00A8F2"><path d="M40 77.344c20.625 0 37.345-16.72 37.345-37.344 0-20.625-16.72-37.345-37.344-37.345C19.376 2.655 2.656 19.375 2.656 40c0 20.625 16.72 37.345 37.345 37.345Zm0 2c21.73 0 39.345-17.615 39.345-39.344C79.345 18.27 61.73.654 40 .654 18.27.655.656 18.27.656 40c0 21.73 17.615 39.345 39.345 39.345Z"/><path d="M39 30a6 6 0 1 0 0-12 6 6 0 0 0 0 12Zm0 2a8 8 0 1 0 0-16 8 8 0 0 0 0 16Z"/><path opacity=".2" d="M50 41a6 6 0 1 0 12 0 6 6 0 0 0-12 0Zm-2 0a8 8 0 1 0 16 0 8 8 0 0 0-16 0ZM39 62a6 6 0 1 0 0-12 6 6 0 0 0 0 12Zm0 2a8 8 0 1 0 0-16 8 8 0 0 0 0 16ZM18 41a6 6 0 1 0 12 0 6 6 0 0 0-12 0Zm-2 0a8 8 0 1 0 16 0 8 8 0 0 0-16 0Z"/></g><defs><clipPath id="bda"><rect width="80" height="80" rx="40" fill="#fff"/></clipPath></defs></symbol><symbol fill="none" viewBox="0 0 80 80" id="icon-8" xmlns="http://www.w3.org/2000/svg"><g clip-path="url(#bea)" fill-rule="evenodd" clip-rule="evenodd" fill="#00A8F2"><path d="M40 77.344c20.625 0 37.345-16.72 37.345-37.344 0-20.625-16.72-37.345-37.344-37.345C19.376 2.655 2.656 19.375 2.656 40c0 20.625 16.72 37.345 37.345 37.345Zm0 2c21.73 0 39.345-17.615 39.345-39.344C79.345 18.27 61.73.654 40 .654 18.27.655.656 18.27.656 40c0 21.73 17.615 39.345 39.345 39.345Z"/><path opacity=".2" d="M58 29H22a6 6 0 0 0-6 6v16a6 6 0 0 0 6 6h36a6 6 0 0 0 6-6V35a6 6 0 0 0-6-6Zm-36-2a8 8 0 0 0-8 8v16a8 8 0 0 0 8 8h36a8 8 0 0 0 8-8V35a8 8 0 0 0-8-8H22Z"/><path d="M27 25a5 5 0 0 1 5-5h16a5 5 0 0 1 5 5v4h-2v-4a3 3 0 0 0-3-3H32a3 3 0 0 0-3 3v4h-2v-4Z"/></g><defs><clipPath id="bea"><rect width="80" height="80" rx="40" fill="#fff"/></clipPath></defs></symbol><symbol fill="none" viewBox="0 0 80 80" id="icon-9" xmlns="http://www.w3.org/2000/svg"><g clip-path="url(#bfa)" fill="#00A8F2"><path fill-rule="evenodd" clip-rule="evenodd" d="M40.115 44.23c6.138 0 11.114-4.977 11.114-11.115C51.23 26.976 46.254 22 40.115 22 33.976 22 29 26.976 29 33.115c0 6.138 4.976 11.114 11.115 11.114Zm0 2c7.243 0 13.114-5.872 13.114-13.115S47.358 20 40.115 20 27 25.872 27 33.115s5.872 13.114 13.115 13.114Z"/><path opacity=".2" d="M40.23 51c-11.796 0-21.773 7.786-25.072 18.5L16.81 71c2.75-10.363 12.193-18 23.421-18 11.031 0 20.34 7.372 23.27 17.458l1.5-1.876C61.428 58.344 51.687 51 40.23 51Z"/><path fill-rule="evenodd" clip-rule="evenodd" d="M40 77.344c20.625 0 37.345-16.72 37.345-37.344 0-20.625-16.72-37.345-37.344-37.345C19.376 2.655 2.656 19.375 2.656 40c0 20.625 16.72 37.345 37.345 37.345Zm0 2c21.73 0 39.345-17.615 39.345-39.344C79.345 18.27 61.73.654 40 .654 18.27.655.656 18.27.656 40c0 21.73 17.615 39.345 39.345 39.345Z"/></g><defs><clipPath id="bfa"><rect width="80" height="80" rx="40" fill="#fff"/></clipPath></defs></symbol><symbol fill="none" viewBox="0 0 32 32" id="image-05" xmlns="http://www.w3.org/2000/svg"><path fill-rule="evenodd" clip-rule="evenodd" d="M24 5a3 3 0 1 0 0 6 3 3 0 0 0 0-6Zm-5 3a5 5 0 1 1 10 0 5 5 0 0 1-10 0Zm-5.782 4.696a1.088 1.088 0 0 0-.163.169c-.157.189-.348.463-.654.904L4.473 25.222c-.387.558-.637.92-.794 1.198a1.42 1.42 0 0 0-.133.283c.01.084.05.16.113.215.024.008.108.034.308.052.318.029.758.03 1.437.03h18.02l-4.334-6.26a.984.984 0 0 1-.026-.039l-4.8-6.932c-.305-.44-.496-.715-.654-.904a1.088 1.088 0 0 0-.163-.169.333.333 0 0 0-.229 0Zm6.665 5.676-3.998-5.776a15.038 15.038 0 0 0-.74-1.013c-.231-.277-.524-.569-.934-.736a2.333 2.333 0 0 0-1.757 0c-.41.167-.702.459-.934.736-.222.267-.465.617-.74 1.013L2.803 24.121c-.353.51-.656.948-.864 1.316-.207.366-.416.822-.391 1.34.032.687.367 1.325.913 1.743.412.315.905.403 1.325.442.42.038.953.038 1.573.038h21.368c.608 0 1.132 0 1.547-.038.414-.038.9-.125 1.31-.434.544-.412.88-1.041.921-1.722.03-.512-.167-.965-.365-1.331-.198-.366-.489-.802-.826-1.308l-4.064-6.095c-.276-.414-.52-.78-.744-1.058-.232-.287-.527-.592-.945-.766a2.332 2.332 0 0 0-1.788 0c-.417.174-.713.479-.945.766a15.42 15.42 0 0 0-.744 1.058l-.2.3Zm1.225 1.768L25.857 27h.823c.667 0 1.098-.001 1.41-.03a1.39 1.39 0 0 0 .302-.05.334.334 0 0 0 .114-.214 1.389 1.389 0 0 0-.125-.278c-.15-.276-.388-.635-.758-1.19l-4.014-6.02c-.307-.462-.5-.75-.66-.949a1.133 1.133 0 0 0-.167-.178.333.333 0 0 0-.232 0 1.127 1.127 0 0 0-.166.178c-.16.199-.353.487-.66.948l-.616.923Z" fill="currentColor"/></symbol><symbol fill="none" viewBox="0 0 32 32" id="intersect-circle" xmlns="http://www.w3.org/2000/svg"><path fill-rule="evenodd" clip-rule="evenodd" d="M12 3.667a8.333 8.333 0 0 0-2.334 16.336V20c0-5.707 4.626-10.333 10.333-10.333h.003a8.337 8.337 0 0 0-8.003-6Zm10.116 6.217c-.977-4.692-5.135-8.217-10.117-8.217C6.292 1.667 1.666 6.293 1.666 12c0 4.982 3.525 9.14 8.217 10.117.977 4.692 5.135 8.217 10.116 8.217 5.707 0 10.334-4.627 10.334-10.334 0-4.981-3.525-9.14-8.217-10.116Zm-1.79 1.79a8.333 8.333 0 0 0-8.654 8.654 8.333 8.333 0 0 0 8.654-8.654Zm-8.329 10.66H12c5.707 0 10.334-4.627 10.334-10.334v-.002a8.333 8.333 0 1 1-10.336 10.336Z" fill="currentColor"/></symbol><symbol fill="none" viewBox="0 0 32 32" id="layers-three-01" xmlns="http://www.w3.org/2000/svg"><path fill-rule="evenodd" clip-rule="evenodd" d="m16 3.785-.03.015L4.902 9.334l11.068 5.533.03.015.03-.015 11.067-5.533L16.029 3.8 16 3.785Zm-.308-2.01c.203-.039.412-.039.615 0 .238.044.45.152.58.217l.037.019L29.78 8.439a1 1 0 0 1 0 1.789l-12.856 6.428a3.268 3.268 0 0 0-.037.019c-.13.065-.343.173-.58.218a1.667 1.667 0 0 1-.615 0 2.2 2.2 0 0 1-.58-.218l-.037-.019L2.22 10.228a1 1 0 0 1 0-1.789l12.856-6.428.037-.019c.13-.065.343-.173.58-.218ZM1.772 15.552a1 1 0 0 1 1.341-.447l12.857 6.428.03.015.03-.015 12.856-6.428a1 1 0 0 1 .894 1.789l-12.856 6.428-.037.018c-.13.066-.343.174-.58.219a1.663 1.663 0 0 1-.615 0 2.196 2.196 0 0 1-.58-.219l-.037-.018L2.22 16.895a1 1 0 0 1-.447-1.342Zm0 6.667a1 1 0 0 1 1.341-.447L15.97 28.2l.03.014c.009-.004.019-.01.03-.014l12.856-6.428a1 1 0 1 1 .894 1.788L16.924 29.99a85.59 85.59 0 0 1-.037.019c-.13.066-.343.174-.58.218a1.667 1.667 0 0 1-.615 0 2.2 2.2 0 0 1-.58-.218l-.037-.018L2.22 23.56a1 1 0 0 1-.447-1.341Z" fill="currentColor"/></symbol><symbol fill="none" viewBox="0 0 144 36" id="logo" xmlns="http://www.w3.org/2000/svg"><g clip-path="url(#bja)" fill="currentColor"><path d="M0 35.64 15.108.9h5.83l15.108 34.74h-7.912l-2.794-6.452H10.703l-2.794 6.451H0Zm18.026-23.352L13.52 22.687h9.008l-4.503-10.399ZM65.06.9 49.528 35.64h-5.36L27.84.9h8.486l10.567 22.949 9.88-22.95h8.288ZM56.676 35.64 71.784.9h5.83L92.72 35.64H84.81l-2.794-6.452H67.38l-2.792 6.451h-7.912Zm18.027-23.352-4.507 10.399h9.007l-4.5-10.399ZM98.674 2.932l-.312 1.478-.194.037a7.873 7.873 0 0 0-1.719-.833 5.444 5.444 0 0 0-1.666-.25c-2.81 0-4.215 1.736-4.215 5.207 0 1.67.327 2.898.98 3.682.655.784 1.669 1.176 3.042 1.176.368 0 .736-.033 1.098-.097.483-.094.96-.218 1.427-.37l.04-1.457-.02-1.864 1.458-.118-.04 1.768.078 2.721c-.733.232-1.48.42-2.234.563-.622.114-1.253.173-1.885.175-1.852 0-3.24-.524-4.164-1.573-.924-1.049-1.387-2.564-1.389-4.547 0-2.138.525-3.767 1.573-4.887 1.048-1.12 2.544-1.68 4.489-1.68a7.836 7.836 0 0 1 3.653.87ZM109.884 14.24l-.019.194c-.462.18-.945.297-1.438.35l-.213-.137a67.253 67.253 0 0 1-2.856-4.663h-2.274v.738l.078 3.886h-1.575l.099-3.748-.099-8.703 3.81-.02c1.216 0 2.159.308 2.827.923.667.615 1.001 1.493.999 2.632a4.107 4.107 0 0 1-.666 2.303c-.445.68-1.076 1.207-1.894 1.582a53.108 53.108 0 0 0 3.221 4.662Zm-6.78-5.576 2.332.058c1.45-.415 2.175-1.38 2.176-2.894 0-.79-.214-1.384-.641-1.78-.428-.395-1.069-.605-1.924-.63l-1.885.058-.058 5.188ZM120.52 3.612c.911 1.05 1.367 2.56 1.367 4.527 0 2.124-.486 3.76-1.456 4.906-.971 1.147-2.357 1.72-4.159 1.72-1.684 0-2.983-.544-3.896-1.633-.912-1.088-1.369-2.636-1.369-4.643 0-2.072.483-3.666 1.448-4.78.965-1.114 2.341-1.671 4.128-1.67 1.712 0 3.024.524 3.937 1.573Zm-7.917 4.702c0 1.776.314 3.091.942 3.944.628.853 1.576 1.28 2.845 1.282 2.591 0 3.886-1.703 3.886-5.11 0-1.735-.314-3.024-.943-3.867-.628-.842-1.577-1.263-2.847-1.262-2.589 0-3.883 1.67-3.883 5.013ZM133.217 8.489l-.02 1.399c.026 1.528-.376 2.72-1.205 3.575-.83.856-2.009 1.283-3.537 1.282-1.463 0-2.587-.408-3.37-1.224-.784-.816-1.162-1.969-1.137-3.458l.02-1.69-.02-6.218h1.535l-.058 7.713c-.014 1.166.245 2.043.777 2.633.531.589 1.321.884 2.37.884 1.049 0 1.846-.277 2.39-.833.544-.555.81-1.384.797-2.487l-.078-7.912h1.554l-.018 6.336ZM143.008 3.078c.661.628.992 1.531.991 2.71 0 1.389-.411 2.477-1.233 3.264-.823.788-1.959 1.183-3.41 1.185h-1.479v.486l.077 3.886h-1.574l.098-3.748-.098-8.704 3.809-.019c1.219-.001 2.159.312 2.819.94Zm-1.233 4.926c.42-.52.631-1.213.632-2.082 0-1.606-.855-2.441-2.565-2.506l-1.885.057-.058 5.46 2.04.039c.803-.127 1.415-.45 1.836-.968Z"/></g><defs><clipPath id="bja"><path fill="#fff" d="M0 0h144v36H0z"/></clipPath></defs></symbol><symbol fill="none" viewBox="0 0 32 32" id="medical-cross" xmlns="http://www.w3.org/2000/svg"><path fill-rule="evenodd" clip-rule="evenodd" d="M14.098 3h3.804c.343 0 .658 0 .922.021.284.024.595.077.902.233.439.224.796.581 1.02 1.02.156.307.21.618.233.902.021.264.021.579.021.922v3.769c0 .39 0 .622.015.794.008.105.02.15.023.161.032.06.08.108.14.14a.843.843 0 0 0 .161.023c.172.014.405.015.794.015h3.769c.343 0 .658 0 .922.021.284.024.595.077.902.233.439.224.796.581 1.02 1.02.156.307.21.618.233.902.021.264.021.58.021.922v3.804c0 .343 0 .658-.021.922a2.366 2.366 0 0 1-.233.902c-.224.439-.581.796-1.02 1.02-.307.156-.618.21-.902.233-.264.021-.579.021-.922.021h-3.769c-.39 0-.622 0-.794.015a.843.843 0 0 0-.161.023.333.333 0 0 0-.14.14.843.843 0 0 0-.023.161c-.014.172-.015.405-.015.794v3.769c0 .343 0 .658-.021.922a2.366 2.366 0 0 1-.233.902c-.224.439-.581.796-1.02 1.02-.307.156-.618.21-.902.233-.264.021-.579.021-.922.021h-3.804c-.343 0-.658 0-.922-.021a2.366 2.366 0 0 1-.902-.233 2.334 2.334 0 0 1-1.02-1.02 2.366 2.366 0 0 1-.232-.902C11 26.56 11 26.244 11 25.902v-3.769c0-.39 0-.622-.015-.794a.843.843 0 0 0-.023-.161.334.334 0 0 0-.14-.14.847.847 0 0 0-.161-.023A11.168 11.168 0 0 0 9.867 21H6.098c-.343 0-.658 0-.922-.021a2.366 2.366 0 0 1-.902-.233 2.334 2.334 0 0 1-1.02-1.02 2.366 2.366 0 0 1-.233-.902C3 18.56 3 18.244 3 17.902v-3.804c0-.343 0-.658.021-.922.024-.284.077-.595.233-.902.224-.439.581-.796 1.02-1.02.307-.156.618-.21.902-.232.264-.022.58-.022.922-.022h3.769c.39 0 .622 0 .794-.015a.845.845 0 0 0 .161-.023.334.334 0 0 0 .14-.14.847.847 0 0 0 .023-.161c.014-.172.015-.404.015-.794V6.098c0-.343 0-.658.021-.922.024-.284.077-.595.233-.902.224-.439.581-.796 1.02-1.02.307-.156.618-.21.902-.233.264-.021.58-.021.922-.021Zm-3.138 7.825.001-.002Zm-.135.135-.002.001Zm0 10.08-.002-.001Zm.135.134.001.003Zm10.214-.134.003-.001Zm.003-10.079h-.003Zm-.137-.136-.001-.002ZM13.175 5.04l.002-.001Zm.003-.002a.836.836 0 0 1 .161-.023C13.511 5 13.743 5 14.133 5h3.734c.39 0 .622 0 .794.015a.84.84 0 0 1 .161.023c.06.032.108.08.14.14a.844.844 0 0 1 .023.161c.014.172.015.404.015.794v3.769c0 .343 0 .658.021.922.024.284.077.595.233.902.224.439.581.796 1.02 1.02.307.156.618.21.902.232.264.022.58.022.922.022h3.769c.39 0 .622 0 .794.015.105.008.15.02.161.023.06.032.108.08.14.14a.845.845 0 0 1 .023.161c.014.172.015.404.015.794v3.734c0 .39 0 .622-.015.794a.845.845 0 0 1-.023.161.334.334 0 0 1-.14.14.845.845 0 0 1-.161.023c-.172.014-.405.015-.794.015h-3.769c-.343 0-.658 0-.922.021a2.366 2.366 0 0 0-.902.233c-.439.224-.796.581-1.02 1.02-.156.307-.21.618-.233.902-.021.264-.021.58-.021.922v3.769c0 .39 0 .622-.015.794a.845.845 0 0 1-.023.161.334.334 0 0 1-.14.14.847.847 0 0 1-.161.023c-.172.014-.405.015-.794.015h-3.734c-.39 0-.622 0-.794-.015a.845.845 0 0 1-.161-.023.334.334 0 0 1-.14-.14.845.845 0 0 1-.023-.161 11.168 11.168 0 0 1-.015-.794v-3.769c0-.343 0-.658-.021-.922a2.366 2.366 0 0 0-.233-.902 2.334 2.334 0 0 0-1.02-1.02 2.366 2.366 0 0 0-.902-.233C10.56 19 10.245 19 9.902 19H6.133c-.39 0-.622 0-.794-.015a.844.844 0 0 1-.161-.023.334.334 0 0 1-.14-.14.838.838 0 0 1-.023-.161A11.116 11.116 0 0 1 5 17.867v-3.734c0-.39 0-.622.015-.794a.836.836 0 0 1 .023-.161.333.333 0 0 1 .14-.14.844.844 0 0 1 .161-.023C5.511 13 5.743 13 6.133 13h3.769c.343 0 .658 0 .922-.021.284-.024.595-.077.902-.233.439-.224.796-.581 1.02-1.02.156-.307.21-.618.232-.902.022-.264.022-.58.022-.922V6.133c0-.39 0-.622.015-.794a.844.844 0 0 1 .023-.161.333.333 0 0 1 .14-.14Zm-.138.136-.001.002ZM5.175 13.04l.002-.001Zm-.135.135-.001.002Zm0 5.65-.001-.002Zm.135.135.001.001Zm7.865 7.866-.001-.003Zm.135.134.002.001Zm5.65 0-.002.001Zm.135-.134.001-.003Zm7.866-7.866-.003.001Zm.134-.134.001-.003Zm0-5.652.001.003Zm-.137-.135h.003ZM18.96 5.175l.001.001Zm-.137-.136h.003Z" fill="currentColor"/></symbol><symbol fill="none" viewBox="0 0 24 24" id="ok" xmlns="http://www.w3.org/2000/svg"><path d="M11.451 3.63a2.567 2.567 0 0 1 2.565 2.565 2.567 2.567 0 0 1-2.565 2.563 2.568 2.568 0 0 1-2.564-2.563A2.568 2.568 0 0 1 11.45 3.63Zm0 8.757a6.199 6.199 0 0 0 6.194-6.192A6.2 6.2 0 0 0 11.451 0a6.2 6.2 0 0 0-6.194 6.195 6.2 6.2 0 0 0 6.194 6.192Zm2.506 5.053a11.598 11.598 0 0 0 3.597-1.49 1.815 1.815 0 0 0-1.933-3.073 7.863 7.863 0 0 1-8.34 0 1.813 1.813 0 0 0-2.502.57 1.814 1.814 0 0 0 .569 2.503 11.615 11.615 0 0 0 3.596 1.49l-3.462 3.462a1.815 1.815 0 0 0 2.567 2.566l3.401-3.402 3.405 3.402a1.813 1.813 0 1 0 2.565-2.566l-3.463-3.462Z" fill="currentColor"/></symbol><symbol fill="none" viewBox="0 0 32 32" id="perspective-01" xmlns="http://www.w3.org/2000/svg"><path fill-rule="evenodd" clip-rule="evenodd" d="M6.098 3H7.235c.343 0 .659 0 .922.021.284.024.595.077.902.233.44.224.796.581 1.02 1.02.156.307.21.618.233.902.021.264.021.58.021.922v.082l11.359 1.623c.025-.273.08-.57.229-.862.224-.44.58-.796 1.02-1.02.307-.156.618-.21.902-.233.263-.021.579-.021.922-.021h1.137c.343 0 .658 0 .922.021.284.023.595.077.902.233.439.224.796.58 1.02 1.02.156.307.21.618.233.902.021.263.021.579.021.922v1.137c0 .343 0 .658-.021.922a2.366 2.366 0 0 1-.233.902c-.224.439-.581.796-1.02 1.02-.307.156-.618.21-.902.232a7.331 7.331 0 0 1-.49.02v6.004c.176.002.341.007.49.02.284.023.595.076.902.232.439.224.796.581 1.02 1.02.156.307.21.618.233.902.021.264.021.58.021.922v1.137c0 .343 0 .659-.021.922a2.366 2.366 0 0 1-.233.902c-.224.44-.581.796-1.02 1.02-.307.156-.618.21-.902.233-.264.021-.579.021-.922.021h-1.137c-.343 0-.659 0-.922-.021a2.365 2.365 0 0 1-.902-.233 2.333 2.333 0 0 1-1.02-1.02 2.325 2.325 0 0 1-.23-.862L10.334 25.82v.082c0 .343 0 .658-.021.922a2.365 2.365 0 0 1-.233.902c-.224.439-.58.796-1.02 1.02-.307.156-.618.21-.902.233-.263.021-.579.021-.922.021H6.098c-.343 0-.658 0-.922-.021a2.366 2.366 0 0 1-.902-.233 2.334 2.334 0 0 1-1.02-1.02 2.366 2.366 0 0 1-.233-.902C3 26.56 3 26.244 3 25.902v-1.137c0-.343 0-.659.021-.922.024-.284.077-.595.233-.902.224-.44.581-.796 1.02-1.02.307-.156.618-.21.902-.233.149-.012.314-.017.49-.02V10.332a7.261 7.261 0 0 1-.49-.02 2.364 2.364 0 0 1-.902-.233 2.333 2.333 0 0 1-1.02-1.02 2.365 2.365 0 0 1-.233-.902C3 7.894 3 7.578 3 7.235V6.098c0-.343 0-.658.021-.922.024-.284.077-.595.233-.902.224-.439.581-.796 1.02-1.02.307-.156.618-.21.902-.233C5.44 3 5.756 3 6.098 3Zm1.569 7.332v11.336c.177.003.342.008.49.02.284.023.595.077.902.233.44.224.796.58 1.02 1.02.15.293.204.589.23.862l11.358-1.623v-.082c0-.343 0-.658.021-.922.023-.284.077-.595.233-.902.224-.439.58-.796 1.02-1.02.307-.156.618-.21.902-.233.148-.012.313-.017.49-.02v-6.003a7.331 7.331 0 0 1-.49-.02 2.366 2.366 0 0 1-.902-.232 2.333 2.333 0 0 1-1.02-1.02 2.365 2.365 0 0 1-.233-.902 11.994 11.994 0 0 1-.021-.922V9.82L10.308 8.197c-.024.273-.08.57-.229.862-.224.44-.58.796-1.02 1.02-.307.156-.618.21-.902.233a7.261 7.261 0 0 1-.49.02Zm.666-3.3V7.2c0 .39 0 .622-.015.794a.837.837 0 0 1-.023.161.333.333 0 0 1-.14.14.837.837 0 0 1-.16.023c-.173.015-.405.015-.795.015H6.133c-.39 0-.622 0-.794-.015a.835.835 0 0 1-.161-.023.333.333 0 0 1-.14-.14.837.837 0 0 1-.023-.16A11.115 11.115 0 0 1 5 7.2V6.133c0-.39 0-.622.015-.794a.837.837 0 0 1 .023-.161.333.333 0 0 1 .14-.14.837.837 0 0 1 .161-.023C5.511 5 5.743 5 6.133 5H7.2c.39 0 .622 0 .794.015.105.008.15.02.161.023.06.032.109.08.14.14a.835.835 0 0 1 .023.161c.015.172.015.404.015.794v.9Zm-.04-1.857.001.002ZM8.16 5.04l-.002-.001Zm-2.985 0 .003-.001Zm-.135.137v-.002Zm0 2.982v-.002Zm.136.135h.002Zm2.984 0h-.002Zm.135-.135v-.002Zm15.373.808v.9c0 .39 0 .622.014.794.01.105.02.15.024.161.032.06.08.108.14.14a.845.845 0 0 0 .16.023c.173.014.405.015.795.015h1.067c.39 0 .622 0 .794-.015a.845.845 0 0 0 .161-.023.334.334 0 0 0 .14-.14.845.845 0 0 0 .023-.161c.014-.172.015-.404.015-.794V8.8c0-.39 0-.622-.015-.794a.845.845 0 0 0-.023-.161.334.334 0 0 0-.14-.14.838.838 0 0 0-.161-.023 11.124 11.124 0 0 0-.794-.015H24.8c-.39 0-.622 0-.794.015a.838.838 0 0 0-.161.023.334.334 0 0 0-.14.14.835.835 0 0 0-.023.16c-.015.173-.015.405-.015.795v.167Zm.04-1.126-.001.002Zm.134-.135h.002Zm2.985 0h-.003Zm.134.135.001.002Zm0 2.984.001-.001Zm-.134.135-.003.001Zm-2.985 0 .002.001Zm-.135-.137v.002ZM24.8 21c-.39 0-.622 0-.794.015a.845.845 0 0 0-.161.023.334.334 0 0 0-.14.14.834.834 0 0 0-.023.161c-.015.172-.015.405-.015.794V23.2c0 .39 0 .622.014.794.01.105.02.15.024.161.032.06.08.108.14.14a.836.836 0 0 0 .16.023c.173.015.405.015.795.015h1.067c.39 0 .622 0 .794-.014a.836.836 0 0 0 .161-.024.334.334 0 0 0 .14-.14.843.843 0 0 0 .023-.16C27 23.821 27 23.59 27 23.2v-1.067c0-.39 0-.622-.015-.794a.843.843 0 0 0-.023-.161.334.334 0 0 0-.14-.14.845.845 0 0 0-.161-.023 11.168 11.168 0 0 0-.794-.015H24.8Zm2.026.04-.003-.001Zm.134.134.001.003Zm-.134 3.12h-.003Zm-2.985 0h.002Zm-.135-.135v-.002Zm0-2.982v-.003Zm.137-.138h-.002Zm-15.51 3.896V24.8c0-.39 0-.622-.015-.794a.836.836 0 0 0-.023-.161.334.334 0 0 0-.14-.14.835.835 0 0 0-.16-.023 11.105 11.105 0 0 0-.795-.015H6.133c-.39 0-.622 0-.794.014a.835.835 0 0 0-.161.024.334.334 0 0 0-.14.14.838.838 0 0 0-.023.16C5 24.179 5 24.41 5 24.8v1.067c0 .39 0 .622.015.794.008.105.02.15.023.161.032.06.08.108.14.14a.844.844 0 0 0 .161.023c.172.014.404.015.794.015H7.2c.39 0 .622 0 .794-.015a.844.844 0 0 0 .161-.023.334.334 0 0 0 .14-.14.836.836 0 0 0 .023-.161c.015-.172.015-.405.015-.794v-.932Zm-.04 1.89.001-.002Zm-.134.135-.002.001Zm-2.985 0 .002.001Zm-.135-.137v.003Zm0-2.982v.002Zm.137-.135h-.002Zm2.98 0h.003Zm.138.135v.002Z" fill="currentColor"/></symbol><symbol fill="none" viewBox="0 0 32 32" id="play" xmlns="http://www.w3.org/2000/svg"><path fill-rule="evenodd" clip-rule="evenodd" d="m21.333 16-8-4.619v9.238l8-4.619ZM20 16l-6-3.464v6.928L20 16Z" fill="currentColor"/></symbol><symbol fill="none" viewBox="0 0 32 32" id="plus-circle" xmlns="http://www.w3.org/2000/svg"><path fill-rule="evenodd" clip-rule="evenodd" d="M16 3.667C9.187 3.667 3.665 9.188 3.665 16c0 6.811 5.522 12.333 12.333 12.333 6.812 0 12.334-5.522 12.334-12.333 0-6.812-5.522-12.334-12.334-12.334ZM1.665 16c0-7.916 6.417-14.334 14.333-14.334S30.333 8.084 30.333 16c0 7.916-6.418 14.333-14.334 14.333-7.916 0-14.333-6.417-14.333-14.333Zm14.333-6.334a1 1 0 0 1 1 1V15h4.334a1 1 0 0 1 0 2h-4.334v4.333a1 1 0 1 1-2 0V17h-4.333a1 1 0 1 1 0-2h4.333v-4.334a1 1 0 0 1 1-1Z" fill="currentColor"/></symbol><symbol fill="none" viewBox="0 0 32 32" id="puzzle-piece-01" xmlns="http://www.w3.org/2000/svg"><path fill-rule="evenodd" clip-rule="evenodd" d="M9 6a4.333 4.333 0 1 1 8.666 0v1h.369c.902 0 1.629 0 2.221.04.609.042 1.147.13 1.657.34a5 5 0 0 1 2.706 2.707c.21.51.298 1.048.34 1.657.025.364.034.78.038 1.256H26a4.333 4.333 0 1 1 0 8.667h-1v1.31c0 1.083 0 1.957-.057 2.665-.06.73-.186 1.37-.488 1.962a5 5 0 0 1-2.185 2.185c-.592.301-1.232.427-1.961.487-.708.058-1.582.058-2.666.058h-.976a1 1 0 0 1-1-1V27a2 2 0 0 0-4 0v2.334a1 1 0 0 1-1 1H9.023c-1.084 0-1.958 0-2.666-.058-.728-.06-1.369-.186-1.96-.487a5 5 0 0 1-2.186-2.185c-.302-.593-.428-1.233-.487-1.962-.058-.708-.058-1.582-.058-2.665v-2.31a1 1 0 0 1 1-1h2a2.333 2.333 0 0 0 0-4.667h-2a1 1 0 0 1-1-1v-.035c0-.902 0-1.63.04-2.221.042-.61.13-1.147.34-1.657A5 5 0 0 1 4.754 7.38c.51-.211 1.048-.299 1.656-.34C7.001 7 7.73 7 8.63 7H9V6Zm4.333-2.333A2.333 2.333 0 0 0 10.999 6v2a1 1 0 0 1-1 1H8.666c-.946 0-1.605 0-2.12.036-.507.035-.803.1-1.028.193a3 3 0 0 0-1.624 1.623c-.093.226-.158.52-.192 1.028-.021.31-.03.674-.034 1.12h.998a4.333 4.333 0 0 1 0 8.667h-1v1.267c0 1.136 0 1.929.051 2.545.05.606.142.953.276 1.217a3 3 0 0 0 1.311 1.31c.263.135.611.227 1.216.276.617.05 1.41.052 2.546.052h.6V27a4 4 0 0 1 8 0v1.334c1.101 0 1.874-.002 2.48-.052.604-.049.952-.141 1.215-.275a3 3 0 0 0 1.311-1.311c.135-.264.227-.611.276-1.217.05-.616.051-1.409.051-2.545v-2.267a1 1 0 0 1 1-1h2A2.333 2.333 0 1 0 26 15h-2a1 1 0 0 1-1-1c0-.945 0-1.604-.035-2.12-.035-.507-.1-.802-.193-1.028a3 3 0 0 0-1.624-1.623c-.225-.094-.52-.158-1.027-.193C19.604 9.001 18.945 9 18 9h-1.334a1 1 0 0 1-1-1V6a2.333 2.333 0 0 0-2.333-2.333Z" fill="currentColor"/></symbol><symbol fill="none" viewBox="0 0 32 32" id="repeat-01" xmlns="http://www.w3.org/2000/svg"><path fill-rule="evenodd" clip-rule="evenodd" d="M21.96 1.96a1 1 0 0 1 1.414 0l5.333 5.333a1 1 0 0 1 0 1.414l-5.333 5.333a1 1 0 0 1-1.414-1.414L25.586 9H10.4c-1.137 0-1.929 0-2.546.051-.605.05-.953.142-1.216.276a3 3 0 0 0-1.311 1.31c-.134.264-.226.612-.276 1.217-.05.617-.051 1.41-.051 2.546v.266a1 1 0 1 1-2 0v-.309c0-1.084 0-1.958.058-2.666.06-.729.185-1.369.487-1.961A5 5 0 0 1 5.73 7.545c.592-.302 1.233-.428 1.961-.487C8.4 7 9.273 7 10.357 7h15.229L21.96 3.374a1 1 0 0 1 0-1.415ZM27 17.6v-.267a1 1 0 1 1 2 0v.31c0 1.083 0 1.958-.058 2.665-.06.73-.185 1.37-.487 1.962a5 5 0 0 1-2.185 2.185c-.592.302-1.232.428-1.961.487C23.6 25 22.727 25 21.643 25H6.414l3.626 3.626a1 1 0 1 1-1.414 1.414l-5.333-5.333a1 1 0 0 1 0-1.414l5.333-5.334a1 1 0 0 1 1.414 1.415L6.414 23H21.6c1.137 0 1.929 0 2.546-.051.605-.05.953-.142 1.216-.276a3 3 0 0 0 1.311-1.311c.134-.263.226-.611.276-1.216.05-.617.051-1.41.051-2.546Z" fill="currentColor"/></symbol><symbol fill="none" viewBox="0 0 32 32" id="roller-brush" xmlns="http://www.w3.org/2000/svg"><path fill-rule="evenodd" clip-rule="evenodd" d="M7.236 1.667h14.862c.523 0 .927 0 1.284.07a3.667 3.667 0 0 1 2.88 2.88c.025.124.041.252.052.389.198.003.38.01.546.022.423.028.823.09 1.21.251a3.667 3.667 0 0 1 1.984 1.984c.16.388.223.787.252 1.21.027.406.027.9.027 1.493v.475c0 .712 0 1.306-.04 1.792-.04.506-.13.982-.36 1.431a3.667 3.667 0 0 1-1.602 1.603c-.45.229-.925.319-1.431.36-.486.04-1.08.04-1.793.04h-4.84c-.764 0-1.276 0-1.67.033-.383.03-.566.087-.687.148-.314.16-.569.415-.728.729-.062.12-.118.303-.149.686-.032.395-.033.907-.033 1.67v.069c.177.002.342.007.49.02.285.023.596.076.903.232.439.224.796.58 1.02 1.02.156.307.209.618.232.902.022.264.022.579.022.922v5.137c0 .343 0 .659-.022.922a2.365 2.365 0 0 1-.233.902c-.223.44-.58.796-1.02 1.02-.306.156-.617.21-.901.233a12 12 0 0 1-.923.021h-1.136c-.344 0-.659 0-.922-.021a2.365 2.365 0 0 1-.903-.233 2.333 2.333 0 0 1-1.02-1.02 2.366 2.366 0 0 1-.232-.902c-.022-.264-.022-.579-.022-.922v-5.137c0-.343 0-.658.022-.922.023-.284.076-.595.233-.902.223-.44.58-.796 1.02-1.02.306-.156.617-.21.902-.233.148-.012.313-.017.49-.02v-.108c0-.713 0-1.307.04-1.793.041-.506.13-.982.36-1.431.351-.69.912-1.251 1.602-1.603.45-.229.925-.318 1.432-.36.485-.04 1.08-.04 1.792-.04h4.84c.764 0 1.276 0 1.67-.032.384-.032.567-.088.687-.15.314-.159.569-.414.729-.727.061-.121.117-.304.148-.687.033-.395.033-.907.033-1.67V10c0-.635 0-1.061-.023-1.391-.022-.321-.06-.477-.104-.58a1.666 1.666 0 0 0-.901-.902c-.103-.043-.26-.082-.58-.104a9.017 9.017 0 0 0-.412-.017c-.01.132-.026.257-.05.376a3.667 3.667 0 0 1-2.88 2.88c-.358.072-.762.072-1.285.071H7.236c-.524 0-.928 0-1.285-.07a3.667 3.667 0 0 1-2.88-2.881C3 7.025 3 6.622 3 6.098a156.865 156.865 0 0 0 0-.196c0-.523 0-.927.07-1.284a3.667 3.667 0 0 1 2.881-2.881c.357-.07.761-.07 1.285-.07ZM15.466 21c-.39 0-.621 0-.794.015a.845.845 0 0 0-.16.023.334.334 0 0 0-.14.14.843.843 0 0 0-.024.16c-.014.173-.015.405-.015.795V27.2c0 .39.001.622.015.794.009.105.02.15.024.161.031.06.08.108.14.14a.836.836 0 0 0 .16.023c.173.014.405.015.795.015h1.066c.39 0 .622 0 .795-.015a.836.836 0 0 0 .16-.023.334.334 0 0 0 .14-.14.836.836 0 0 0 .024-.16c.014-.173.015-.405.015-.795v-5.067c0-.39-.001-.622-.015-.794a.834.834 0 0 0-.024-.161.334.334 0 0 0-.14-.14.843.843 0 0 0-.16-.023 11.166 11.166 0 0 0-.795-.015h-1.066Zm2.026.04-.002-.001h.002Zm.135.134v.002-.002Zm-.135 7.12h-.002.002Zm-2.984 0h.002-.002Zm-.135-7.12v.002-.002Zm.135-.134.002-.001h-.002ZM7.333 3.666c-.667 0-.855.004-.991.032a1.667 1.667 0 0 0-1.31 1.31c-.027.136-.032.323-.032.99 0 .668.005.856.032.993a1.667 1.667 0 0 0 1.31 1.31c.136.026.324.031.991.031H22c.668 0 .855-.005.992-.032a1.667 1.667 0 0 0 1.31-1.31c.027-.136.031-.324.031-.991 0-.668-.004-.855-.032-.992a1.667 1.667 0 0 0-1.31-1.31c-.136-.027-.323-.031-.99-.031H7.332Z" fill="currentColor"/></symbol><symbol fill="none" viewBox="0 0 32 32" id="route" xmlns="http://www.w3.org/2000/svg"><path fill-rule="evenodd" clip-rule="evenodd" d="M6.666 3.667a3 3 0 1 0 0 6 3 3 0 0 0 0-6Zm-5 3a5 5 0 1 1 10 0 5 5 0 0 1-10 0Zm12.667 0a1 1 0 0 1 1-1h.63c1.988 0 3.545 0 4.698.095.585.048 1.11.123 1.562.25.451.128.89.325 1.242.658a3.667 3.667 0 0 1 1.075 3.383c-.095.475-.34.89-.634 1.254-.295.365-.68.73-1.13 1.107-.887.743-2.158 1.642-3.78 2.79l-5.462 3.863c-1.674 1.184-2.877 2.035-3.693 2.72-.406.34-.68.61-.86.83-.178.222-.219.344-.228.39a1.667 1.667 0 0 0 .489 1.537c.034.032.138.109.412.186.273.078.653.14 1.18.183C11.897 25 13.37 25 15.42 25h1.246a1 1 0 1 1 0 2h-1.297c-1.988 0-3.545 0-4.698-.094-.585-.048-1.11-.123-1.562-.251-.451-.128-.89-.325-1.242-.658a3.667 3.667 0 0 1-1.075-3.382c.095-.475.34-.89.634-1.254.295-.366.68-.73 1.13-1.108.887-.743 2.158-1.641 3.78-2.79l5.462-3.862c1.674-1.184 2.877-2.036 3.693-2.72.406-.34.68-.61.86-.83.178-.222.219-.345.228-.39a1.667 1.667 0 0 0-.489-1.538c-.034-.032-.138-.108-.412-.186-.273-.077-.653-.139-1.18-.182-1.062-.087-2.536-.088-4.586-.088h-.58a1 1 0 0 1-1-1Zm6 18.667a5 5 0 1 1 10 0 5 5 0 0 1-10 0Zm5-3a3 3 0 1 0 0 6 3 3 0 0 0 0-6Z" fill="currentColor"/></symbol><symbol fill="none" viewBox="0 0 32 32" id="sale-01" xmlns="http://www.w3.org/2000/svg"><path fill-rule="evenodd" clip-rule="evenodd" d="M16 3.667C9.187 3.667 3.665 9.188 3.665 16c0 6.811 5.522 12.333 12.333 12.333 6.812 0 12.334-5.522 12.334-12.333 0-6.812-5.522-12.334-12.334-12.334ZM1.665 16c0-7.916 6.417-14.334 14.333-14.334S30.333 8.084 30.333 16c0 7.916-6.418 14.333-14.334 14.333-7.916 0-14.333-6.417-14.333-14.333ZM22.04 9.96a1 1 0 0 1 0 1.414L11.373 22.04a1 1 0 0 1-1.414-1.414L20.626 9.96a1 1 0 0 1 1.414 0ZM10.333 12a1.667 1.667 0 1 1 3.333 0 1.667 1.667 0 0 1-3.333 0Zm8 8a1.667 1.667 0 1 1 3.333 0 1.667 1.667 0 0 1-3.333 0Z" fill="currentColor"/></symbol><symbol fill="none" viewBox="0 0 32 32" id="scales-01" xmlns="http://www.w3.org/2000/svg"><path fill-rule="evenodd" clip-rule="evenodd" d="M16 3a1 1 0 0 1 1 1v5.486l6.835-1.14a1 1 0 0 1 1.033.491l4.77 8.35.031.053c.18.315.322.563.424.832.09.237.156.483.195.734.045.284.045.57.045.932V20a6.333 6.333 0 1 1-12.667 0v-.262c0-.362 0-.648.044-.932.04-.25.105-.497.195-.735.103-.269.244-.516.424-.83l.031-.054 3.726-6.521-5.904.984a1.336 1.336 0 0 1-.034.006L9.58 12.75l4.059 7.103.03.054c.18.314.322.562.424.831.09.238.156.484.195.735.045.284.045.57.045.931v.262a6.333 6.333 0 1 1-12.667 0v-.262c0-.362 0-.647.044-.931.04-.251.105-.497.196-.735.102-.269.243-.517.423-.83l.031-.055 4.771-8.35a1 1 0 0 1 .704-.49l7.164-1.193V4a1 1 0 0 1 1-1ZM3.665 22.466v.2a4.333 4.333 0 0 0 8.667 0v-.333H3.666v.133Zm7.944-2.133H4.39L8 14.016l3.61 6.317ZM24 11.35l-3.61 6.318h7.22L24 11.349Zm4.333 8.318h-8.667V20a4.333 4.333 0 0 0 8.667 0v-.333Z" fill="currentColor"/></symbol><symbol fill="none" viewBox="0 0 32 32" id="shield-tick" xmlns="http://www.w3.org/2000/svg"><path fill-rule="evenodd" clip-rule="evenodd" d="M15.665 1.781c.222-.032.446-.032.668 0 .253.037.49.126.712.21l.054.02 7.15 2.681c.05.02.101.038.151.057.849.317 1.514.566 2.023 1.015.447.393.791.89 1.003 1.447.241.634.24 1.344.24 2.25V16c0 3.645-1.984 6.708-4.173 8.988-2.2 2.293-4.723 3.916-6.06 4.696l-.05.029c-.25.147-.526.309-.895.388-.3.064-.678.064-.978 0-.369-.08-.645-.241-.895-.388a9.259 9.259 0 0 0-.05-.03c-1.338-.78-3.86-2.402-6.06-4.695-2.19-2.28-4.173-5.343-4.173-8.988V9.461c0-.906-.001-1.616.24-2.25a3.667 3.667 0 0 1 1.003-1.447c.509-.449 1.174-.698 2.023-1.015l.152-.057 7.149-2.68.054-.021c.222-.084.459-.173.712-.21Zm.382 1.98a.334.334 0 0 0-.096 0 .601.601 0 0 0-.06.017c-.063.02-.144.051-.29.106l-7.15 2.68c-1.074.404-1.357.527-1.554.7-.203.18-.36.405-.456.658-.093.245-.109.554-.109 1.701V16c0 2.9 1.586 5.489 3.616 7.603 2.018 2.103 4.364 3.618 5.624 4.353.159.093.234.136.292.164a.26.26 0 0 0 .063.025l.016.002a.622.622 0 0 0 .112 0l.016-.002a.254.254 0 0 0 .063-.025 5.17 5.17 0 0 0 .292-.164c1.26-.735 3.606-2.25 5.624-4.353C24.08 21.49 25.666 18.9 25.666 16V9.623c0-1.147-.016-1.456-.11-1.701a1.667 1.667 0 0 0-.455-.658c-.197-.173-.48-.296-1.555-.7l-7.15-2.68a8.312 8.312 0 0 0-.29-.106.601.601 0 0 0-.06-.017Zm-.002 0h.002-.002Zm5.328 7.532a1 1 0 0 1 0 1.414l-6 6a1 1 0 0 1-1.415 0l-2.666-2.667a1 1 0 0 1 1.414-1.414l1.96 1.96 5.292-5.293a1 1 0 0 1 1.415 0Z" fill="currentColor"/></symbol><symbol fill="none" viewBox="0 0 32 32" id="sprout" xmlns="http://www.w3.org/2000/svg"><g clip-path="url(#bwa)"><mask id="bwb" style="mask-type:luminance" maskUnits="userSpaceOnUse" x="0" y="0" width="32" height="32"><path d="M0 0h32v32H0V0Z" fill="#fff"/></mask><g mask="url(#bwb)" fill-rule="evenodd" clip-rule="evenodd" fill="currentColor"><path d="M15.066 23.002a1 1 0 0 0 1.034.89c3.193-.127 5.507-.766 7.25-1.777 1.755-1.018 2.85-2.365 3.675-3.76.407-.69.751-1.397 1.07-2.072l.165-.348c.263-.556.511-1.084.784-1.597.65-1.222 1.381-2.248 2.513-3.007a1 1 0 0 0-.288-1.794c-9.313-2.599-17.125 5.02-16.203 13.465Zm1.928-1.166c-.115-6.145 5.174-11.48 11.833-10.744-.637.723-1.127 1.514-1.549 2.307-.297.56-.57 1.14-.833 1.696l-.157.332a23.606 23.606 0 0 1-.986 1.91c-.706 1.198-1.581 2.251-2.954 3.047-1.228.712-2.917 1.255-5.354 1.452Z"/><path d="M15.786 21.567a1 1 0 0 0 1.137-.755C19.119 11.59 11.502 2.203.853 3.782a1 1 0 0 0-.51 1.743c1.18 1.026 1.863 2.29 2.422 3.743.233.606.438 1.225.652 1.874l.139.417c.263.79.548 1.617.905 2.432.721 1.646 1.746 3.267 3.54 4.62 1.785 1.345 4.256 2.37 7.785 2.956ZM3.104 5.607c7.797-.04 13.148 6.8 12.056 13.812-2.778-.563-4.644-1.417-5.954-2.405-1.444-1.088-2.285-2.393-2.914-3.826-.317-.725-.578-1.477-.839-2.26l-.132-.399c-.215-.65-.437-1.324-.69-1.98-.384-1-.854-2.004-1.527-2.941Z"/><path d="M15.998 28.393a1 1 0 0 0 1-1v-5.351a1 1 0 1 0-2 0v5.351a1 1 0 0 0 1 1Z"/></g></g><defs><clipPath id="bwa"><path fill="#fff" d="M0 0h32v32H0z"/></clipPath></defs></symbol><symbol fill="none" viewBox="0 0 32 32" id="star" xmlns="http://www.w3.org/2000/svg"><path fill-rule="evenodd" clip-rule="evenodd" d="M15.28 2.668c.454-.217.981-.217 1.435 0 .379.18.596.498.72.7.127.208.26.477.398.758l2.933 5.942.016.031.034.005 6.56.959c.31.045.607.088.844.145.23.056.6.165.888.47.346.364.509.865.443 1.364-.055.416-.29.72-.445.901-.158.185-.373.394-.597.612l-4.745 4.622-.025.025.005.034 1.12 6.529c.053.309.104.604.123.847.019.236.03.621-.17.99-.24.442-.667.752-1.161.844-.413.076-.776-.053-.995-.144-.225-.093-.49-.233-.768-.379L16.03 24.84a6.524 6.524 0 0 0-.032-.017c-.01.006-.02.01-.03.017L10.1 27.923c-.277.146-.542.286-.767.379-.22.09-.582.22-.995.144a1.667 1.667 0 0 1-1.16-.844c-.201-.369-.19-.754-.171-.99.019-.243.07-.538.123-.847l1.12-6.529.005-.034-.025-.025-4.745-4.622c-.225-.218-.44-.427-.597-.612-.155-.18-.39-.485-.445-.901-.066-.498.097-1 .442-1.365.29-.304.659-.413.89-.469a10.144 10.144 0 0 1 .88-.15l6.522-.954.035-.005.016-.031 2.933-5.942c.138-.28.27-.55.398-.757.124-.203.341-.52.72-.701Zm.717 2.257c-.018.038-.038.079-.06.121l-2.915 5.907-.019.039a2.202 2.202 0 0 1-.347.546 1.667 1.667 0 0 1-.519.377 2.209 2.209 0 0 1-.67.168l-6.52.953-.134.02.096.094 4.718 4.595.03.03c.11.105.29.279.414.5.105.188.172.396.198.61a2.204 2.204 0 0 1-.047.69l-1.114 6.49-.022.132.12-.062 5.83-3.066c.011-.007.024-.013.038-.02.134-.072.355-.19.603-.239.212-.041.43-.041.641 0 .248.049.47.167.603.238l.038.02 5.83 3.067.12.062-.023-.133-1.113-6.49a2.204 2.204 0 0 1-.047-.69c.026-.213.093-.42.198-.61.123-.22.304-.394.413-.5l.031-.03 4.718-4.594.096-.094-.133-.02-6.522-.953a2.209 2.209 0 0 1-.67-.168 1.665 1.665 0 0 1-.518-.377c-.171-.185-.28-.41-.347-.546a3.888 3.888 0 0 0-.02-.04l-2.915-5.906c-.02-.042-.04-.083-.06-.12Z" fill="currentColor"/></symbol><symbol fill="none" viewBox="0 0 32 32" id="star2" xmlns="http://www.w3.org/2000/svg"><path d="m16 2.667 2.682 6.975c.376.977.564 1.466.856 1.877.26.365.578.683.942.942.411.292.9.48 1.878.857L29.333 16l-6.975 2.683c-.978.376-1.467.564-1.878.856-.364.26-.683.578-.942.942-.292.411-.48.9-.856 1.878l-2.683 6.974-2.682-6.974c-.376-.978-.564-1.467-.857-1.878a4.002 4.002 0 0 0-.942-.942c-.41-.292-.9-.48-1.877-.856L2.666 16l6.975-2.682c.977-.377 1.466-.564 1.877-.857.365-.259.683-.577.942-.942.293-.411.48-.9.857-1.877l2.682-6.975Z" stroke="currentColor" stroke-width="2" stroke-linecap="round" stroke-linejoin="round"/></symbol><symbol fill="none" viewBox="0 0 32 32" id="sun-setting-01" xmlns="http://www.w3.org/2000/svg"><path fill-rule="evenodd" clip-rule="evenodd" d="M16 3a1 1 0 0 1 1 1v2.667a1 1 0 1 1-2 0V4a1 1 0 0 1 1-1ZM4.491 7.16a1 1 0 0 1 1.414 0l1.886 1.885a1 1 0 0 1-1.414 1.414L4.492 8.574a1 1 0 0 1 0-1.415Zm23.014 0a1 1 0 0 1 0 1.414l-1.885 1.885a1 1 0 0 1-1.414-1.414l1.885-1.886a1 1 0 0 1 1.415 0ZM7.054 19H2.666a1 1 0 1 0 0 2h26.667a1 1 0 1 0 0-2h-4.389a9.001 9.001 0 0 0-17.89 0Zm2.016 0h13.858A7.002 7.002 0 0 0 9.07 19Zm-3.404 6.333a1 1 0 0 1 1-1h18.667a1 1 0 1 1 0 2H6.666a1 1 0 0 1-1-1Z" fill="currentColor"/></symbol><symbol fill="none" viewBox="0 0 24 24" id="tg" xmlns="http://www.w3.org/2000/svg"><path d="M22.454 3.388a.475.475 0 0 0-.326-.356 1.676 1.676 0 0 0-.886.064S1.529 10.18.402 10.964c-.241.17-.323.268-.364.383-.194.563.412.806.412.806l5.08 1.655c.087.015.175.01.258-.016 1.156-.73 11.63-7.343 12.234-7.565.095-.028.166 0 .14.07-.241.843-9.289 8.885-9.338 8.934a.194.194 0 0 0-.069.166l-.474 4.96s-.2 1.547 1.345 0a43.144 43.144 0 0 1 2.671-2.443c1.747 1.206 3.627 2.54 4.438 3.234a1.407 1.407 0 0 0 1.03.398 1.16 1.16 0 0 0 .984-.875s3.601-14.448 3.72-16.393c.012-.19.03-.305.03-.446.005-.149-.01-.298-.045-.444Z" fill="currentColor"/></symbol><symbol fill="none" viewBox="0 0 32 32" id="tool-02" xmlns="http://www.w3.org/2000/svg"><path fill-rule="evenodd" clip-rule="evenodd" d="M3.292 1.96a1 1 0 0 1 1.024-.242l4 1.334A1 1 0 0 1 8.999 4v3.586l4.975 4.975a.73.73 0 0 0 .006-.049c0-.008-.003-.057-.022-.175-.025-.163-.069-.384-.134-.716A8.333 8.333 0 0 1 26.18 2.79a1 1 0 0 1 .204 1.571l-3.503 3.504c-.276.275-.44.44-.552.572a.831.831 0 0 0-.097.13.332.332 0 0 0 0 .198c.006.01.03.05.098.13.111.132.275.297.55.572l.317.317c.276.275.44.44.572.55.08.07.12.092.13.098.065.02.134.02.198 0a.831.831 0 0 0 .13-.097c.132-.112.297-.276.573-.551l3.277-3.277a1 1 0 0 1 1.632.327 8.336 8.336 0 0 1-6.116 11.347l4.446 4.444a3.829 3.829 0 0 1-5.414 5.415l-6.627-6.627-6.626 6.627a3.828 3.828 0 1 1-5.414-5.414L12.585 14l-5-5H4a1 1 0 0 1-.948-.683l-1.334-4a1 1 0 0 1 .242-1.024L3.292 1.96ZM7 7V4.721l-2.73-.91-.459.46L4.72 7H7Zm7.709 7.706-.002.002-9.333 9.333a1.828 1.828 0 0 0 2.586 2.586l9.543-9.543.073-.074.15-.149.153-.154a2.33 2.33 0 0 1 .411-.328 2.294 2.294 0 0 1 .566-.267 2.286 2.286 0 0 1 .52-.09 2.7 2.7 0 0 1 .943.087 6.322 6.322 0 0 0 1.681.225 6.333 6.333 0 0 0 6.276-7.195l-2.085 2.085c-.242.242-.465.465-.667.637a2.366 2.366 0 0 1-.803.473 2.334 2.334 0 0 1-1.442 0 2.366 2.366 0 0 1-.802-.473 12.066 12.066 0 0 1-.668-.637l-.365-.366a12.066 12.066 0 0 1-.637-.667 2.366 2.366 0 0 1-.474-.803 2.334 2.334 0 0 1 0-1.442c.107-.328.29-.585.474-.803.171-.201.394-.424.637-.667l2.504-2.504a6.333 6.333 0 0 0-8.161 7.262l.004.02c.06.307.111.566.144.77.03.197.062.436.038.671a2.279 2.279 0 0 1-.085.45c-.05.162-.115.299-.18.42-.166.31-.446.589-.717.86l-.074.073-.208.208ZM17.414 20l6.626 6.626a1.828 1.828 0 1 0 2.586-2.585l-5.788-5.788a8.374 8.374 0 0 1-.46-.077 21.863 21.863 0 0 0-.716-.135c-.09-.014-.14-.019-.162-.02a.451.451 0 0 0-.139.049l-.066.057a11.76 11.76 0 0 0-.38.371L17.415 20Zm6.68-9.565.004-.002Z" fill="currentColor"/></symbol><symbol fill="none" viewBox="0 0 32 32" id="tree" xmlns="http://www.w3.org/2000/svg"><path fill-rule="evenodd" clip-rule="evenodd" d="M12.293 16.626a1 1 0 0 1 1.414 0l.96.96v-6.92a1 1 0 1 1 2 0v2.92l.96-.96a1 1 0 0 1 1.413 1.415l-2.373 2.373v12.92a1 1 0 1 1-2 0v-8.92l-2.374-2.373a1 1 0 0 1 0-1.415Z" fill="currentColor"/><path fill-rule="evenodd" clip-rule="evenodd" d="M4 29.334a1 1 0 0 1 1-1h21.333a1 1 0 1 1 0 2H5a1 1 0 0 1-1-1ZM15.667 23.334c4.571 0 8.666-4.25 8.666-10 0-5.751-4.095-10-8.666-10-4.572 0-8.667 4.249-8.667 10 0 5.75 4.095 10 8.667 10Zm0 2c5.89 0 10.666-5.373 10.666-12 0-6.628-4.775-12-10.666-12S5 6.706 5 13.334c0 6.627 4.776 12 10.667 12Z" fill="currentColor"/></symbol><symbol fill="none" viewBox="0 0 32 32" id="trophy-01" xmlns="http://www.w3.org/2000/svg"><path fill-rule="evenodd" clip-rule="evenodd" d="M9.811 1.667H22.187c.432-.001.883-.003 1.277.14a2.333 2.333 0 0 1 1.395 1.395c.127.35.14.745.14 1.132h2.363c.286 0 .548 0 .768.015.237.016.498.053.762.162a2.333 2.333 0 0 1 1.263 1.263c.11.265.147.525.163.762.015.22.015.483.015.769v.85c0 1.09 0 1.834-.17 2.473a5 5 0 0 1-3.536 3.535c-.527.141-1.126.166-1.933.17A9.008 9.008 0 0 1 17 20.945V23h.926a5.74 5.74 0 0 1 5.741 5.741c0 .88-.713 1.593-1.593 1.593H9.925c-.88 0-1.592-.713-1.592-1.593a5.74 5.74 0 0 1 5.74-5.74H15v-2.056a9.008 9.008 0 0 1-7.694-6.612c-.807-.004-1.406-.029-1.933-.17a5 5 0 0 1-3.536-3.535c-.17-.639-.17-1.383-.17-2.473v-.85c0-.286 0-.549.015-.769.016-.237.053-.497.163-.762a2.333 2.333 0 0 1 1.262-1.263c.265-.11.526-.146.762-.162.22-.015.483-.015.77-.015h2.361c0-.387.014-.782.141-1.132a2.333 2.333 0 0 1 1.395-1.394c.393-.144.845-.142 1.276-.141ZM7 6.334H4.666c-.324 0-.517 0-.661.01a.853.853 0 0 0-.137.017.333.333 0 0 0-.175.174.854.854 0 0 0-.017.137c-.01.144-.01.337-.01.662V8c0 1.305.009 1.76.102 2.11a3 3 0 0 0 2.122 2.121c.24.065.531.089 1.115.098A9.173 9.173 0 0 1 7 12V6.334Zm2-1.741c0-.288 0-.46.009-.588a.861.861 0 0 1 .013-.123.333.333 0 0 1 .194-.194.863.863 0 0 1 .123-.013c.128-.008.3-.008.587-.008h12.148c.288 0 .46 0 .588.008a.86.86 0 0 1 .123.013c.09.034.16.105.194.194a.863.863 0 0 1 .013.123c.008.128.008.3.008.588V12a7 7 0 1 1-14 0V4.593Zm16 1.74V12c0 .11-.002.22-.005.329.583-.009.875-.033 1.115-.098a3 3 0 0 0 2.121-2.121c.094-.35.103-.805.103-2.11v-.666c0-.325 0-.518-.01-.662a.855.855 0 0 0-.017-.137.334.334 0 0 0-.175-.174.854.854 0 0 0-.137-.017c-.144-.01-.337-.01-.661-.01h-2.334ZM14.074 25a3.741 3.741 0 0 0-3.72 3.334h11.29A3.741 3.741 0 0 0 17.925 25h-3.852Z" fill="currentColor"/></symbol><symbol fill="none" viewBox="0 0 32 32" id="truck-02" xmlns="http://www.w3.org/2000/svg"><path fill-rule="evenodd" clip-rule="evenodd" d="M6.892 3h10.215c.712 0 1.306 0 1.792.04.506.041.982.13 1.432.36.69.351 1.25.912 1.602 1.602.23.45.319.925.36 1.432.04.485.04 1.08.04 1.792v1.44h2.18c.26 0 .54 0 .812.065.238.057.466.152.675.28.239.146.436.344.62.528l.045.045 2.75 2.75.045.046c.185.184.382.38.529.62.128.209.222.436.28.674.065.273.064.552.064.812v3.749c0 .343 0 .659-.022.922a2.366 2.366 0 0 1-.233.902c-.223.44-.58.796-1.02 1.02-.306.156-.617.21-.901.233-.264.021-.58.021-.923.021h-.25a4.333 4.333 0 1 1-7.304 0h-7.362a4.333 4.333 0 1 1-7.275-.045c-.485-.043-.942-.134-1.375-.354a3.667 3.667 0 0 1-1.602-1.603c-.23-.45-.319-.925-.36-1.431-.04-.486-.04-1.08-.04-1.793v-8.88c0-.713 0-1.308.04-1.793.041-.507.13-.982.36-1.432.351-.69.912-1.25 1.602-1.602.45-.23.925-.319 1.432-.36C5.585 3 6.18 3 6.892 3Zm1.774 19.333a2.333 2.333 0 1 0 0 4.667 2.333 2.333 0 0 0 0-4.667Zm11.667-2V8.267c0-.764-.001-1.276-.033-1.67-.032-.383-.087-.566-.149-.687a1.667 1.667 0 0 0-.728-.728c-.121-.062-.304-.118-.687-.149-.395-.032-.907-.033-1.67-.033H6.933c-.764 0-1.276 0-1.67.033-.383.031-.566.087-.687.149-.314.16-.569.414-.728.728-.062.12-.118.304-.149.687-.032.394-.033.906-.033 1.67v8.8c0 .763 0 1.275.033 1.67.031.383.087.566.149.686.16.314.414.569.728.729.12.061.304.117.687.148.394.033.906.033 1.67.033h13.4Zm2-8.666v8.666h4.866c.39 0 .622 0 .795-.014a.834.834 0 0 0 .16-.024.334.334 0 0 0 .14-.14.841.841 0 0 0 .024-.16c.014-.173.015-.405.015-.795v-3.65c0-.171 0-.267-.004-.34-.003-.064-.007-.075-.006-.069a.336.336 0 0 0-.04-.096c.004.005-.001-.006-.044-.053A8.45 8.45 0 0 0 28 14.75l-2.75-2.75a8.596 8.596 0 0 0-.244-.239c-.047-.042-.058-.047-.052-.044a.332.332 0 0 0-.097-.04c.006.001-.005-.003-.069-.006a8.52 8.52 0 0 0-.34-.003h-2.116Zm5.96 8.492v-.002Zm-.135.135h-.002Zm-4.825 2.04a2.333 2.333 0 1 0 0 4.666 2.333 2.333 0 0 0 0-4.667Z" fill="currentColor"/></symbol><symbol fill="none" viewBox="0 0 32 32" id="umbrella" xmlns="http://www.w3.org/2000/svg"><path fill-rule="evenodd" clip-rule="evenodd" d="M18.655 3.953c-4.491-.992-9.258.612-12.218 4.255a6.48 6.48 0 0 0-.388.501c-.048.076-.052.1-.053.11v.001s-.002.01-.001.032a.544.544 0 0 0 .042.19l.002.004a.784.784 0 0 0 .11.093c.131.094.318.203.65.395l4.228 2.44c1.777-2.883 3.83-5.258 5.802-6.81.607-.478 1.22-.888 1.826-1.211Zm4.505-.37C16.978.019 9.246 1.58 4.885 6.948l-.073.088c-.325.398-.688.84-.79 1.46a2.457 2.457 0 0 0 .287 1.556c.184.315.425.534.674.713.221.158.496.317.783.483l.034.02 5.08 2.932h.001l3.752 2.167-6.909 11.967H2.666a1 1 0 1 0 0 2h26.667a1 1 0 1 0 0-2h-19.3l6.332-10.967 8.867 5.12c.288.165.562.324.81.436.28.126.59.226.955.227a2.457 2.457 0 0 0 1.49-.53c.486-.397.688-.933.87-1.413l.04-.107c2.468-6.463-.048-13.942-6.231-17.512a.279.279 0 0 0-.006-.003Zm-.994 1.736c-.323-.186-.81-.254-1.536-.038-.729.217-1.602.697-2.564 1.454-1.74 1.369-3.632 3.534-5.306 6.24l7.479 4.318c1.506-2.803 2.435-5.524 2.75-7.715.175-1.212.154-2.208-.022-2.948-.175-.736-.478-1.124-.801-1.31Zm-.194 12.975c1.608-2.981 2.64-5.947 2.997-8.43.11-.765.16-1.5.136-2.188 3.104 3.395 4.098 8.324 2.424 12.71-.12.312-.182.472-.24.586-.042.08-.06.094-.069.1l-.001.002s-.008.006-.027.016a.56.56 0 0 1-.155.055c-.02.004-.031.004-.031.004H26.997l-.01-.003a.786.786 0 0 1-.12-.046 8.786 8.786 0 0 1-.668-.366l-4.227-2.44Z" fill="currentColor"/></symbol><symbol fill="none" viewBox="0 0 32 32" id="users-02" xmlns="http://www.w3.org/2000/svg"><path fill-rule="evenodd" clip-rule="evenodd" d="M12.666 5a5 5 0 1 0 0 10 5 5 0 0 0 0-10Zm-7 5a7 7 0 1 1 14 0 7 7 0 0 1-14 0Zm14.771-5.821a1 1 0 0 1 1.34-.45 7 7 0 0 1 0 12.543 1 1 0 0 1-.89-1.791 5 5 0 0 0 0-8.962 1 1 0 0 1-.45-1.34Zm-7.77 18.154c-3.51 0-6.765 1.833-9.215 4.952a1 1 0 1 1-1.572-1.236c2.74-3.488 6.533-5.716 10.786-5.716 4.253 0 8.046 2.228 10.786 5.716a1 1 0 0 1-1.572 1.236c-2.45-3.119-5.705-4.952-9.214-4.952Zm10.421-.39a1 1 0 0 1 1.324-.499c2.181.987 4.119 2.584 5.707 4.605a1 1 0 1 1-1.573 1.236c-1.418-1.806-3.11-3.182-4.959-4.019a1 1 0 0 1-.499-1.323Z" fill="currentColor"/></symbol><symbol fill="none" viewBox="0 0 24 24" id="vk" xmlns="http://www.w3.org/2000/svg"><path fill-rule="evenodd" clip-rule="evenodd" d="M23.435 6.925c.178-.522 0-.901-.788-.901H20.03c-.66 0-.966.332-1.144.688 0 0-1.347 3.037-3.228 5.006-.61.57-.89.759-1.22.759-.178 0-.406-.19-.406-.712V6.902c0-.617-.204-.902-.763-.902H9.15c-.406 0-.66.285-.66.57 0 .593.94.735 1.042 2.396v3.606c0 .783-.153.925-.483.925-.89 0-3.05-3.06-4.347-6.548C4.448 6.261 4.194 6 3.533 6H.89C.127 6 0 6.332 0 6.688c0 .64.89 3.867 4.143 8.138 2.16 2.918 5.236 4.484 8.007 4.484 1.677 0 1.88-.356 1.88-.95v-2.206c0-.711.153-.83.687-.83.381 0 1.067.19 2.618 1.59 1.78 1.66 2.084 2.42 3.075 2.42h2.619c.762 0 1.118-.357.915-1.045-.23-.688-1.093-1.684-2.212-2.87-.61-.665-1.525-1.4-1.804-1.756-.382-.474-.28-.664 0-1.091-.026 0 3.177-4.223 3.507-5.647Z" fill="currentColor"/></symbol></svg>