<svg width="80" height="80" viewBox="0 0 80 80" fill="none" xmlns="http://www.w3.org/2000/svg">
<path d="M64.333 21C67.6663 24.6667 69.6663 28.6667 69.6663 35.3334C69.6663 47 61.333 57.3334 49.6663 62.6667L46.6663 58.3334C57.6663 52.3334 59.9997 44.6667 60.6663 39.6667C58.9997 40.6667 56.6663 41 54.333 40.6667C48.333 40 43.6663 35.3334 43.6663 29C43.6663 26 44.9997 23 46.9997 20.6667C49.333 18.3334 51.9997 17.3334 55.333 17.3334C58.9997 17.3334 62.333 19 64.333 21ZM30.9997 21C34.333 24.6667 36.333 28.6667 36.333 35.3334C36.333 47 27.9997 57.3334 16.333 62.6667L13.333 58.3334C24.333 52.3334 26.6663 44.6667 27.333 39.6667C25.6663 40.6667 23.333 41 20.9997 40.6667C14.9997 40 10.333 35 10.333 29C10.333 26 11.6663 23 13.6663 20.6667C15.9997 18.3334 18.6663 17.3334 21.9997 17.3334C25.6663 17.3334 28.9997 19 30.9997 21Z" fill="#00A8F2"/>
</svg>
