<svg width="24" height="24" viewBox="0 0 24 24" fill="none" xmlns="http://www.w3.org/2000/svg">
<path fill-rule="evenodd" clip-rule="evenodd" d="M11.4601 2.00072C11.8004 1.83847 12.1957 1.83847 12.536 2.00072C12.8204 2.13628 12.9833 2.37471 13.0762 2.52647C13.1715 2.68215 13.271 2.88379 13.3749 3.09436L15.5746 7.55071C15.5788 7.55904 15.5826 7.56687 15.5863 7.57425C15.5944 7.57544 15.603 7.5767 15.6122 7.57805L20.5326 8.29723C20.7649 8.33115 20.9873 8.36363 21.1647 8.4063C21.3377 8.4479 21.6147 8.5294 21.8313 8.75801C22.0905 9.03165 22.2125 9.40766 22.1631 9.78136C22.1219 10.0936 21.9454 10.3221 21.8298 10.4573C21.7111 10.5959 21.5501 10.7528 21.3819 10.9165L17.8228 14.3831C17.8161 14.3896 17.8099 14.3957 17.804 14.4014C17.8054 14.4096 17.8068 14.4182 17.8084 14.4273L18.6482 19.3237C18.6879 19.5552 18.726 19.7769 18.7404 19.9589C18.7544 20.1363 18.7628 20.425 18.6124 20.7019C18.4324 21.0332 18.1125 21.2656 17.7418 21.3343C17.4321 21.3917 17.16 21.2945 16.9957 21.2263C16.827 21.1564 16.628 21.0516 16.4201 20.9423L12.0213 18.629C12.0131 18.6247 12.0054 18.6206 11.9981 18.6168C11.9908 18.6206 11.983 18.6247 11.9748 18.629L7.57601 20.9423C7.36814 21.0517 7.1691 21.1564 7.00047 21.2263C6.8361 21.2945 6.56408 21.3917 6.25432 21.3343C5.8836 21.2656 5.5637 21.0332 5.38374 20.7019C5.23337 20.425 5.24171 20.1363 5.25575 19.9589C5.27017 19.7769 5.30821 19.5552 5.34795 19.3237L6.18773 14.4273C6.18931 14.4182 6.19078 14.4096 6.19217 14.4014C6.18627 14.3957 6.18001 14.3896 6.17334 14.3831L2.61424 10.9165C2.44607 10.7528 2.28502 10.5959 2.16638 10.4573C2.05072 10.3221 1.87426 10.0936 1.83303 9.78136C1.78368 9.40766 1.9056 9.03165 2.16485 8.75801C2.38143 8.5294 2.6584 8.4479 2.83139 8.4063C3.00883 8.36364 3.23125 8.33115 3.46351 8.29723C3.4732 8.29582 3.48291 8.2944 3.49262 8.29298L8.38389 7.57805C8.39309 7.5767 8.40173 7.57544 8.40987 7.57425C8.41352 7.56687 8.41738 7.55904 8.4215 7.55071L10.6212 3.09438C10.7251 2.8838 10.8246 2.68215 10.9199 2.52647C11.0128 2.37471 11.1758 2.13628 11.4601 2.00072ZM11.9981 3.69397C11.984 3.72246 11.969 3.75265 11.9532 3.78467L9.76656 8.21464C9.76215 8.22358 9.75742 8.2333 9.75236 8.24371C9.70256 8.34608 9.62048 8.51484 9.49169 8.65346C9.38163 8.77192 9.24963 8.8679 9.10302 8.93608C8.93145 9.01586 8.7456 9.04192 8.63287 9.05773C8.6214 9.05934 8.61069 9.06084 8.60083 9.06228L3.70957 9.77721C3.67425 9.78237 3.64094 9.78725 3.6095 9.79189C3.63224 9.8141 3.65634 9.8376 3.68191 9.8625L7.21994 13.3085C7.22709 13.3155 7.23489 13.323 7.24324 13.331C7.32536 13.4101 7.46076 13.5405 7.55293 13.706C7.6317 13.8475 7.68223 14.0029 7.70172 14.1636C7.72453 14.3517 7.69168 14.5368 7.67175 14.649C7.66972 14.6604 7.66783 14.6711 7.66614 14.6809L6.83133 19.5483C6.8253 19.5835 6.81961 19.6167 6.81428 19.6481C6.84245 19.6333 6.87227 19.6176 6.90389 19.601L11.2766 17.3014C11.2855 17.2968 11.295 17.2917 11.3052 17.2862C11.4058 17.2326 11.5716 17.1442 11.7575 17.1077C11.9164 17.0765 12.0798 17.0765 12.2386 17.1077C12.4245 17.1442 12.5903 17.2326 12.6909 17.2862C12.7011 17.2917 12.7107 17.2968 12.7195 17.3014L17.0923 19.601C17.1239 19.6176 17.1537 19.6333 17.1819 19.6481C17.1765 19.6167 17.1708 19.5835 17.1648 19.5483L16.33 14.6809C16.3283 14.6711 16.3264 14.6604 16.3244 14.649C16.3045 14.5368 16.2716 14.3517 16.2944 14.1636C16.3139 14.0029 16.3644 13.8475 16.4432 13.706C16.5354 13.5405 16.6708 13.4101 16.7529 13.3311C16.7612 13.323 16.7691 13.3155 16.7762 13.3085L20.3142 9.8625C20.3398 9.8376 20.3639 9.8141 20.3866 9.79189C20.3552 9.78725 20.3219 9.78237 20.2866 9.77721L15.3953 9.06228C15.3854 9.06084 15.3747 9.05934 15.3633 9.05773C15.2505 9.04192 15.0647 9.01586 14.8931 8.93608C14.7465 8.8679 14.6145 8.77192 14.5045 8.65346C14.3757 8.51484 14.2936 8.34608 14.2438 8.24371C14.2387 8.2333 14.234 8.22358 14.2296 8.21464L12.0429 3.78467C12.0271 3.75265 12.0122 3.72246 11.9981 3.69397Z" fill="#14273B"/>
</svg>
