<svg width="180" height="180" viewBox="0 0 180 180" fill="none" xmlns="http://www.w3.org/2000/svg">
<rect width="180" height="180" fill="url(#paint0_linear_751_8791)"/>
<path d="M14.0625 118.477L38.8099 61.5234H48.359L73.105 118.477H60.1454L55.5687 107.9H31.5934L27.0166 118.477H14.0625ZM43.5885 80.1938L36.2098 97.242H50.9646L43.5885 80.1938Z" fill="white"/>
<path d="M120.631 61.5234L95.1863 118.477H86.4079L59.6633 61.5234H73.5642L90.8728 99.1467L107.055 61.5234H120.631Z" fill="white"/>
<path d="M106.896 118.477L131.642 61.5234H141.191L165.938 118.477H152.978L148.401 107.9H124.43L119.856 118.477H106.896ZM136.424 80.1938L129.042 97.242H143.796L136.424 80.1938Z" fill="white"/>
<defs>
<linearGradient id="paint0_linear_751_8791" x1="0" y1="0" x2="180" y2="180" gradientUnits="userSpaceOnUse">
<stop stop-color="#273F69"/>
<stop offset="1" stop-color="#14273B"/>
</linearGradient>
</defs>
</svg>
