<svg width="200" height="48" viewBox="0 0 200 48" fill="none" xmlns="http://www.w3.org/2000/svg">
<g clip-path="url(#clip0_275_12430)">
<path d="M31.1377 0.24707L47.25 47.5428H40.8232L24.7109 0.24707H31.1377Z" fill="white"/>
<path d="M20.4091 0.24707L4.29688 47.5428H6.42405L22.5816 0.24707H20.4091Z" fill="white" fill-opacity="0.6"/>
<path d="M16.1575 0.246826L0 47.5426H2.12718L18.2847 0.246826H16.1575Z" fill="white" fill-opacity="0.6"/>
<path d="M60.9648 47.1348V39.7576H62.1868V42.7899H63.4088L65.6265 39.7576H67.0296L64.4498 43.2878L67.1201 47.1348H65.6265L63.4088 43.9667H62.1416V47.1348H60.9648Z" fill="white" fill-opacity="0.6"/>
<path d="M68.0703 47.135V39.7578H71.2837C72.1436 39.7578 72.8225 39.9841 73.3204 40.482C73.8635 40.9345 74.0898 41.5229 74.0898 42.2471C74.0898 42.9712 73.8182 43.5143 73.3204 44.0122C72.7773 44.4648 72.0984 44.7363 71.2837 44.7363H69.2923V47.135H68.0703ZM69.2923 43.5596H71.2837C71.7816 43.5596 72.1889 43.4238 72.4605 43.1975C72.732 42.9712 72.8678 42.6544 72.8678 42.2471C72.8678 41.8397 72.732 41.5229 72.4605 41.2966C72.1889 41.0703 71.7816 40.9345 71.2837 40.9345H69.2923V43.5596Z" fill="white" fill-opacity="0.6"/>
<path d="M74.5859 47.1347L76.4868 39.8027H79.4739L81.4201 47.1347H80.1528L79.655 45.2338H76.2605L75.8079 47.1347H74.5859ZM76.5773 44.1023H79.3381L78.5235 40.9342H77.392L76.5773 44.1023Z" fill="white" fill-opacity="0.6"/>
<path d="M83.1393 46.2289C82.3699 45.5048 82.0078 44.5543 82.0078 43.4681C82.0078 42.3819 82.3699 41.4315 83.1393 40.7073C83.9087 39.9832 84.8139 39.6211 85.9454 39.6211C87.2126 39.6211 88.2083 40.0737 88.9325 40.9789C89.2493 41.3862 89.4756 41.7935 89.6113 42.2914H88.3894C88.2536 42.0198 88.0725 41.7483 87.8462 41.522C87.3484 41.0241 86.6695 40.7526 85.9001 40.7526C85.1307 40.7526 84.4518 41.0241 83.954 41.522C83.4561 42.0198 83.2298 42.6987 83.2298 43.5134C83.2298 44.328 83.4561 44.9617 83.954 45.5048C84.4518 46.0026 85.0854 46.2742 85.9001 46.2742C86.7148 46.2742 87.3484 46.0026 87.8915 45.4143C88.1178 45.188 88.2988 44.9164 88.4346 44.5543H89.6566C89.4756 45.0974 89.204 45.55 88.8872 45.9574C88.1631 46.9078 87.1673 47.3604 85.9454 47.3604C84.8139 47.3151 83.8634 46.9531 83.1393 46.2289Z" fill="white" fill-opacity="0.6"/>
<path d="M90.9688 47.135V39.7578H92.1907V42.7902H95.8115V39.7578H97.0335V47.0898H95.8115V43.9217H92.1907V47.0898H90.9688V47.135Z" fill="white" fill-opacity="0.6"/>
<path d="M99.483 46.2302C98.7136 45.5061 98.3516 44.5557 98.3516 43.4694C98.3516 42.3832 98.7136 41.4328 99.483 40.7086C100.252 39.9845 101.158 39.5771 102.289 39.5771C103.421 39.5771 104.371 39.9392 105.095 40.7086C105.865 41.4328 106.227 42.3832 106.227 43.4694C106.227 44.5557 105.865 45.5061 105.095 46.2302C104.326 46.9544 103.421 47.3617 102.289 47.3617C101.203 47.3165 100.252 46.9544 99.483 46.2302ZM100.388 41.478C99.8904 41.9759 99.6641 42.6548 99.6641 43.4694C99.6641 44.2841 99.8904 44.9177 100.388 45.4608C100.886 45.9587 101.52 46.2302 102.334 46.2302C103.104 46.2302 103.783 45.9587 104.281 45.4608C104.778 44.963 105.05 44.2841 105.05 43.4694C105.05 42.6548 104.778 42.0211 104.281 41.478C103.783 40.9802 103.149 40.7086 102.334 40.7086C101.52 40.7086 100.886 40.9802 100.388 41.478Z" fill="white" fill-opacity="0.6"/>
<path d="M106.945 48.4928V45.9583H107.805L109.389 39.7578H112.376L113.96 45.9583H114.82V48.4928H113.598V47.135H108.077V48.4928H106.945ZM108.982 45.9583H112.648L111.381 40.9345H110.204L108.982 45.9583Z" fill="white" fill-opacity="0.6"/>
<path d="M115.188 47.1347L117.088 39.8027H120.075L122.022 47.1347H120.754L120.257 45.2338H116.862L116.41 47.1347H115.188ZM117.179 44.1023H119.94L119.125 40.9342H117.948L117.179 44.1023Z" fill="white" fill-opacity="0.6"/>
<path d="M123.102 47.135V39.7578H126.315C127.175 39.7578 127.854 39.9841 128.352 40.482C128.895 40.9345 129.121 41.5229 129.121 42.2471C129.121 42.9712 128.849 43.5143 128.352 44.0122C127.809 44.4648 127.13 44.7363 126.315 44.7363H124.324V47.135H123.102ZM124.324 43.5596H126.315C126.813 43.5596 127.22 43.4238 127.492 43.1975C127.763 42.9712 127.899 42.6544 127.899 42.2471C127.899 41.8397 127.763 41.5229 127.492 41.2966C127.22 41.0703 126.813 40.9345 126.315 40.9345H124.324V43.5596Z" fill="white" fill-opacity="0.6"/>
<path d="M131.206 46.2289C130.436 45.5048 130.074 44.5543 130.074 43.4681C130.074 42.3819 130.436 41.4315 131.206 40.7073C131.975 39.9832 132.88 39.6211 134.012 39.6211C135.279 39.6211 136.275 40.0737 136.999 40.9789C137.316 41.3862 137.542 41.7935 137.678 42.2914H136.456C136.32 42.0198 136.139 41.7483 135.913 41.522C135.415 41.0241 134.736 40.7526 133.967 40.7526C133.197 40.7526 132.518 41.0241 132.02 41.522C131.523 42.0198 131.296 42.6987 131.296 43.5134C131.296 44.328 131.523 44.9617 132.02 45.5048C132.518 46.0026 133.152 46.2742 133.967 46.2742C134.781 46.2742 135.415 46.0026 135.958 45.4143C136.184 45.188 136.365 44.9164 136.501 44.5543H137.723C137.542 45.0974 137.27 45.55 136.954 45.9574C136.229 46.9078 135.234 47.3604 134.012 47.3604C132.926 47.3151 131.975 46.9531 131.206 46.2289Z" fill="white" fill-opacity="0.6"/>
<path d="M139.078 47.135V39.7578H140.3V42.7902H141.522L143.74 39.7578H145.143L142.563 43.288L145.233 47.135H143.785L141.567 43.9669H140.3V47.135H139.078Z" fill="white" fill-opacity="0.6"/>
<path d="M146.592 46.2302C145.823 45.5061 145.461 44.5557 145.461 43.4694C145.461 42.3832 145.823 41.4328 146.592 40.7086C147.362 39.9845 148.267 39.5771 149.398 39.5771C150.53 39.5771 151.48 39.9392 152.205 40.7086C152.974 41.4328 153.336 42.3832 153.336 43.4694C153.336 44.5557 152.974 45.5061 152.205 46.2302C151.435 46.9544 150.53 47.3617 149.398 47.3617C148.267 47.3165 147.362 46.9544 146.592 46.2302ZM147.452 41.478C146.954 41.9759 146.728 42.6548 146.728 43.4694C146.728 44.2841 146.954 44.9177 147.452 45.4608C147.95 45.9587 148.584 46.2302 149.398 46.2302C150.168 46.2302 150.847 45.9587 151.345 45.4608C151.842 44.963 152.114 44.2841 152.114 43.4694C152.114 42.6548 151.842 42.0211 151.345 41.478C150.847 40.9802 150.213 40.7086 149.398 40.7086C148.629 40.7086 147.95 40.9802 147.452 41.478Z" fill="white" fill-opacity="0.6"/>
<path d="M154.695 47.135V39.7578H159.402V40.9345H155.872V47.135H154.695Z" fill="white" fill-opacity="0.6"/>
<path d="M161.397 46.2302C160.628 45.5061 160.266 44.5557 160.266 43.4694C160.266 42.3832 160.628 41.4328 161.397 40.7086C162.167 39.9845 163.072 39.5771 164.203 39.5771C165.335 39.5771 166.285 39.9392 167.009 40.7086C167.779 41.4328 168.141 42.3832 168.141 43.4694C168.141 44.5557 167.779 45.5061 167.009 46.2302C166.24 46.9544 165.335 47.3617 164.203 47.3617C163.072 47.3165 162.167 46.9544 161.397 46.2302ZM162.302 41.478C161.804 41.9759 161.578 42.6548 161.578 43.4694C161.578 44.2841 161.804 44.9177 162.302 45.4608C162.8 45.9587 163.434 46.2302 164.248 46.2302C165.018 46.2302 165.697 45.9587 166.195 45.4608C166.692 44.963 166.964 44.2841 166.964 43.4694C166.964 42.6548 166.692 42.0211 166.195 41.478C165.697 40.9802 165.063 40.7086 164.248 40.7086C163.434 40.7086 162.8 40.9802 162.302 41.478Z" fill="white" fill-opacity="0.6"/>
<path d="M172.664 47.1348V39.7576H173.886V42.7899H175.108L177.326 39.7576H178.729L176.149 43.2878L178.819 47.1348H177.371L175.153 43.9667H173.886V47.1348H172.664Z" fill="white" fill-opacity="0.6"/>
<path d="M179.812 47.135V39.7578H183.026C183.886 39.7578 184.565 39.9841 185.063 40.482C185.606 40.9345 185.832 41.5229 185.832 42.2471C185.832 42.9712 185.56 43.5143 185.063 44.0122C184.519 44.4648 183.841 44.7363 183.026 44.7363H181.035V47.135H179.812ZM180.989 43.5596H182.981C183.478 43.5596 183.886 43.4238 184.157 43.1975C184.429 42.9712 184.565 42.6544 184.565 42.2471C184.565 41.8397 184.429 41.5229 184.157 41.2966C183.886 41.0703 183.478 40.9345 182.981 40.9345H180.989V43.5596Z" fill="white" fill-opacity="0.6"/>
<path d="M186.332 47.1347L188.233 39.8027H191.22L193.166 47.1347H191.899L191.401 45.2338H188.007L187.554 47.1347H186.332ZM188.323 44.1023H191.084L190.27 40.9342H189.093L188.323 44.1023Z" fill="white" fill-opacity="0.6"/>
<path d="M193.98 42.1562C193.98 41.4773 194.252 40.9342 194.75 40.4816C195.248 40.029 195.972 39.8027 196.832 39.8027H200.045V47.1347H198.823V44.5097H197.058L195.474 47.1347H194.071L195.791 44.3739C195.248 44.1929 194.795 43.9213 194.478 43.5592C194.162 43.1067 193.98 42.6541 193.98 42.1562ZM195.655 41.251C195.383 41.4773 195.248 41.7489 195.248 42.111C195.248 42.473 195.383 42.7446 195.655 42.9709C195.927 43.1972 196.334 43.2877 196.832 43.2877H198.823V40.889H196.832C196.289 40.9342 195.927 41.0247 195.655 41.251Z" fill="white" fill-opacity="0.6"/>
<path d="M60.0117 11.5622L62.9083 0.202148H67.5247L70.5118 11.5622H68.5657L67.7963 8.62034H62.5462L61.8221 11.5622H60.0117ZM63.0893 6.85524H67.3889L66.0764 2.01251H64.3113L63.0893 6.85524Z" fill="white"/>
<path d="M73.5464 10.2041C72.3696 9.07261 71.7812 7.62432 71.7812 5.90447C71.7812 4.18463 72.3696 2.73633 73.5464 1.60486C74.6778 0.473378 76.1261 -0.11499 77.846 -0.11499C79.8374 -0.11499 81.3762 0.563897 82.4624 1.96693C82.9602 2.5553 83.3223 3.23418 83.5486 4.04885H81.693C81.512 3.59626 81.2404 3.23418 80.8783 2.87211C80.1089 2.10271 79.068 1.69537 77.8912 1.69537C76.6692 1.69537 75.6735 2.10271 74.9041 2.87211C74.1347 3.64152 73.7726 4.68248 73.7726 5.90447C73.7726 7.17173 74.1347 8.16743 74.9041 8.93683C75.6735 9.70624 76.6692 10.1136 77.8912 10.1136C79.1585 10.1136 80.1542 9.66098 80.9688 8.80106C81.3309 8.43898 81.6025 7.98639 81.7835 7.48854H83.6391C83.3676 8.34846 82.9602 9.07261 82.4624 9.66098C81.3309 11.1093 79.7921 11.8334 77.8912 11.8334C76.1261 11.9239 74.6778 11.3356 73.5464 10.2041Z" fill="white"/>
<path d="M86.9409 10.2038C85.7642 9.07237 85.1758 7.62407 85.1758 5.90423C85.1758 4.18438 85.7642 2.73609 86.9409 1.60461C88.1176 0.473134 89.5659 -0.115234 91.2858 -0.115234C93.2772 -0.115234 94.816 0.563652 95.9022 1.96669C96.4 2.55505 96.7621 3.23394 96.9884 4.0486H95.1328C94.9517 3.59601 94.6802 3.23394 94.3181 2.87187C93.5487 2.10246 92.5078 1.69513 91.331 1.69513C90.109 1.69513 89.1133 2.10246 88.3439 2.87187C87.5745 3.64127 87.2124 4.68223 87.2124 5.90423C87.2124 7.17148 87.5745 8.16718 88.3439 8.93659C89.1133 9.70599 90.109 10.1133 91.331 10.1133C92.5983 10.1133 93.594 9.66074 94.4086 8.80081C94.7707 8.43874 95.0423 7.98615 95.2233 7.4883H97.0789C96.8074 8.34822 96.4 9.07237 95.9022 9.66074C94.7707 11.109 93.2319 11.8332 91.331 11.8332C89.5207 11.9237 88.0724 11.3353 86.9409 10.2038Z" fill="white"/>
<path d="M100.29 10.2038C99.1134 9.07237 98.5703 7.62407 98.5703 5.90423C98.5703 4.18438 99.1587 2.78135 100.29 1.60461C101.467 0.473134 102.915 -0.115234 104.635 -0.115234C106.4 -0.115234 107.848 0.473134 108.98 1.60461C110.157 2.73609 110.7 4.18438 110.7 5.90423C110.7 7.62407 110.111 9.02711 108.98 10.2038C107.803 11.3353 106.355 11.9237 104.635 11.9237C102.915 11.9237 101.467 11.3353 100.29 10.2038ZM101.648 2.82661C100.879 3.59601 100.516 4.63697 100.516 5.85897C100.516 7.12622 100.879 8.12192 101.648 8.89133C102.417 9.66073 103.413 10.0681 104.635 10.0681C105.857 10.0681 106.853 9.66073 107.622 8.89133C108.392 8.12192 108.799 7.08096 108.799 5.85897C108.799 4.59171 108.392 3.59601 107.622 2.82661C106.853 2.0572 105.857 1.64987 104.635 1.64987C103.413 1.64987 102.417 2.0572 101.648 2.82661Z" fill="white"/>
<path d="M112.875 11.5622V0.202148H114.731V9.79708H119.845V0.202148H121.701V9.79708H123.239V13.6894H121.474V11.5622H112.875Z" fill="white"/>
<path d="M125.141 11.5622V0.202148H126.996V7.76042L126.815 9.20871H126.996L132.111 0.202148H134.645V11.5622H132.789V4.04917L132.97 2.60088H132.789L127.63 11.5622H125.141Z" fill="white"/>
<path d="M136.32 11.5622L139.262 0.202148H143.879L146.866 11.5622H144.92L144.15 8.62034H138.945L138.221 11.5622H136.32ZM139.398 6.85524H143.698L142.43 1.96725H140.665L139.398 6.85524Z" fill="white"/>
<path d="M148.582 11.5622V0.202148H150.438V9.79708H155.552V0.202148H157.408V9.79708H158.946V13.6894H157.181V11.5622H148.582Z" fill="white"/>
<path d="M160.848 11.5622V0.202148H162.703V7.76042L162.522 9.20871H162.703L167.818 0.202148H170.352V11.5622H168.496V4.04917L168.677 2.60088H168.496L163.382 11.5622H160.848Z" fill="white"/>
<path d="M172.527 3.86789C172.527 2.82693 172.935 1.96701 173.704 1.24286C174.473 0.563977 175.56 0.201904 176.917 0.201904H181.851V11.5619H179.995V7.48862H177.234L174.79 11.5619H172.618L175.288 7.26233C174.428 7.03603 173.749 6.58344 173.251 5.99507C172.799 5.4067 172.527 4.68256 172.527 3.86789ZM175.107 2.51012C174.7 2.87219 174.473 3.32478 174.473 3.86789C174.473 4.411 174.7 4.86359 175.107 5.22567C175.514 5.58774 176.148 5.72352 176.917 5.72352H179.995V2.01227H176.917C176.148 2.01227 175.56 2.14805 175.107 2.51012Z" fill="white"/>
<path d="M59.832 33.1962V29.3039H61.1445L63.5885 19.709H68.205L70.649 29.3039H71.9615V33.1962H70.1511V31.069H61.6424V33.1962H59.832ZM63.0002 29.2587H68.7028L66.7567 21.4741H64.9916L63.0002 29.2587Z" fill="white"/>
<path d="M73.4531 31.069V19.709H81.645V21.4741H75.3087V24.4159H80.423V26.181H75.3087V29.2587H81.645V31.0238H73.4531V31.069Z" fill="white"/>
<path d="M83.7266 31.069V19.709H89.3387C90.4249 19.709 91.2396 19.9805 91.8732 20.5236C92.5068 21.0668 92.8236 21.7909 92.8236 22.6056C92.8236 23.4202 92.5521 24.0991 91.9637 24.5065C91.7374 24.6875 91.4659 24.8233 91.1038 24.959V25.0496C91.5111 25.1401 91.8732 25.2759 92.1448 25.5021C92.8689 26 93.1857 26.7694 93.1857 27.8104C93.1857 28.7608 92.8236 29.5755 92.1448 30.1638C91.4659 30.7522 90.4702 31.069 89.2029 31.069H83.7266ZM85.5822 24.3254H89.2482C89.746 24.3254 90.1534 24.1896 90.4702 23.9181C90.7417 23.6465 90.8775 23.2845 90.8775 22.8319C90.8775 22.4245 90.7417 22.1077 90.4702 21.8362C90.1986 21.5646 89.7913 21.4741 89.2482 21.4741H85.5822V24.3254ZM85.5822 29.2587H89.1577C90.5607 29.2587 91.2848 28.7155 91.2848 27.6293C91.2848 26.5431 90.5607 26 89.1577 26H85.5822V29.2587Z" fill="white"/>
<path d="M95.4961 31.069V19.709H103.688V21.4741H97.3517V24.4159H102.466V26.181H97.3517V29.2587H103.688V31.0238H95.4961V31.069Z" fill="white"/>
<path d="M104.82 31.069L107.672 19.709H112.288L115.23 31.069H113.284L110.84 21.4741H109.075L106.721 31.069H104.82Z" fill="white"/>
<path d="M118.173 29.6667C116.996 28.5353 116.453 27.087 116.453 25.3671C116.453 23.6473 117.042 22.2442 118.173 21.0675C119.35 19.936 120.798 19.3477 122.518 19.3477C124.283 19.3477 125.731 19.936 126.863 21.0675C128.039 22.199 128.583 23.6473 128.583 25.3671C128.583 27.087 127.994 28.49 126.863 29.6667C125.686 30.7982 124.238 31.3866 122.518 31.3866C120.798 31.3866 119.35 30.7982 118.173 29.6667ZM119.531 22.3348C118.761 23.1042 118.399 24.1451 118.399 25.3671C118.399 26.6344 118.761 27.6301 119.531 28.3995C120.3 29.1689 121.296 29.5762 122.518 29.5762C123.74 29.5762 124.736 29.1689 125.505 28.3995C126.274 27.6301 126.682 26.5891 126.682 25.3671C126.682 24.0999 126.274 23.1042 125.505 22.3348C124.736 21.5654 123.74 21.158 122.518 21.158C121.296 21.158 120.3 21.5654 119.531 22.3348Z" fill="white"/>
<path d="M130.711 31.069V19.709H140.034V31.069H138.179V21.4741H132.612V31.069H130.711Z" fill="white"/>
<path d="M142.656 31.069V19.709H150.848V21.4741H144.512V24.4159H149.626V26.181H144.512V29.2587H150.848V31.0238H142.656V31.069Z" fill="white"/>
<path d="M152.883 31.069V19.709H157.816C159.129 19.709 160.17 20.0711 160.984 20.7952C161.799 21.5193 162.206 22.4245 162.206 23.5107C162.206 24.597 161.799 25.5022 160.984 26.2263C160.17 26.9504 159.129 27.3125 157.816 27.3125H154.738V31.069H152.883ZM154.738 25.5474H157.816C158.585 25.5474 159.219 25.3664 159.626 25.0043C160.034 24.6422 160.26 24.1444 160.26 23.5107C160.26 22.8771 160.034 22.3793 159.626 22.0172C159.219 21.6551 158.585 21.4741 157.816 21.4741H154.738V25.5474Z" fill="white"/>
<path d="M165.423 29.6667C164.246 28.5353 163.703 27.087 163.703 25.3671C163.703 23.6473 164.291 22.2442 165.423 21.0675C166.6 19.936 168.048 19.3477 169.768 19.3477C171.533 19.3477 172.981 19.936 174.113 21.0675C175.289 22.199 175.833 23.6473 175.833 25.3671C175.833 27.087 175.244 28.49 174.113 29.6667C172.936 30.7982 171.488 31.3866 169.768 31.3866C168.048 31.3866 166.6 30.7982 165.423 29.6667ZM166.781 22.3348C166.011 23.1042 165.649 24.1451 165.649 25.3671C165.649 26.6344 166.011 27.6301 166.781 28.3995C167.55 29.1689 168.546 29.5762 169.768 29.5762C170.99 29.5762 171.986 29.1689 172.755 28.3995C173.524 27.6301 173.932 26.5891 173.932 25.3671C173.932 24.0999 173.524 23.1042 172.755 22.3348C171.986 21.5654 170.99 21.158 169.768 21.158C168.546 21.158 167.55 21.5654 166.781 22.3348Z" fill="white"/>
<path d="M178.004 31.069V19.709H183.616C184.702 19.709 185.517 19.9805 186.151 20.5236C186.784 21.0668 187.101 21.7909 187.101 22.6056C187.101 23.4202 186.829 24.0991 186.241 24.5065C186.015 24.6875 185.743 24.8233 185.381 24.959V25.0496C185.788 25.1401 186.151 25.2759 186.422 25.5021C187.146 26 187.463 26.7694 187.463 27.8104C187.463 28.7608 187.101 29.5755 186.422 30.1638C185.743 30.7522 184.748 31.069 183.48 31.069H178.004ZM179.86 24.3254H183.526C184.023 24.3254 184.431 24.1896 184.748 23.9181C185.019 23.6465 185.155 23.2845 185.155 22.8319C185.155 22.4245 185.019 22.1077 184.748 21.8362C184.476 21.5646 184.069 21.4741 183.526 21.4741H179.86V24.3254ZM179.86 29.2587H183.435C184.838 29.2587 185.562 28.7155 185.562 27.6293C185.562 26.5431 184.838 26 183.435 26H179.86V29.2587Z" fill="white"/>
</g>
<defs>
<clipPath id="clip0_275_12430">
<rect width="200" height="48" fill="white"/>
</clipPath>
</defs>
</svg>
